<svg xmlns="http://www.w3.org/2000/svg" viewBox="0 0 1148 668" id="bikeSvg">
  <style>
    .plugin-stroke{fill:none;stroke:black;stroke-width:.5;stroke-linecap:round;stroke-linejoin:round;}
    .st0{display:none;} .st1{fill:none;stroke:#CB7330;stroke-miterlimit:10;} .st2{fill:none;stroke:#D69A72;stroke-linecap:round;stroke-miterlimit:10;} .st3{fill:none;stroke:#D69A72;stroke-miterlimit:10;} .st4{fill:none;stroke:#DB976A;stroke-miterlimit:10;} .st5{fill:none;stroke:#DDA57F;stroke-linecap:round;stroke-miterlimit:10;} .st6{fill:none;stroke:#DDA57F;stroke-miterlimit:10;} .st7{fill:none;stroke:#DB976A;stroke-linecap:round;stroke-miterlimit:10;} .st8{fill:none;stroke:#A06E55;stroke-miterlimit:10;} .st9{fill:none;stroke:#416C6D;stroke-miterlimit:10;} .st10{fill:none;stroke:#91BAB9;stroke-miterlimit:10;} .st11{fill:none;stroke:#91BAB9;stroke-linecap:round;stroke-miterlimit:10;} .st12{fill:none;stroke:#C9DB7F;stroke-linecap:round;stroke-miterlimit:10;} .st13{fill:none;stroke:#E5D693;stroke-linecap:round;stroke-miterlimit:10;} .st14{fill:none;stroke:#D2DB9A;stroke-linecap:round;stroke-miterlimit:10;} .st15{fill:none;stroke:#E2DABA;stroke-linecap:round;stroke-miterlimit:10;} .st16{fill:none;stroke:#E8E5D9;stroke-linecap:round;stroke-miterlimit:10;} .st17{fill:none;stroke:#F7F0D2;stroke-linecap:round;stroke-miterlimit:10;} .st18{fill:none;stroke:#A9C15F;stroke-linecap:round;stroke-miterlimit:10;} .st19{fill:none;stroke:#91A052;stroke-linecap:round;stroke-miterlimit:10;} .st20{fill:none;stroke:#89893A;stroke-linecap:round;stroke-miterlimit:10;} .st21{fill:none;stroke:#A59D4C;stroke-linecap:round;stroke-miterlimit:10;} .st22{fill:none;stroke:#BDBF60;stroke-linecap:round;stroke-miterlimit:10;} .st23{fill:none;stroke:#DBC775;stroke-linecap:round;stroke-miterlimit:10;} .st24{fill:none;stroke:#DB9D5A;stroke-linecap:round;stroke-miterlimit:10;} .st25{fill:none;stroke:#EFAC6A;stroke-linecap:round;stroke-miterlimit:10;} .st26{fill:none;stroke:#EFBB8E;stroke-linecap:round;stroke-miterlimit:10;} .st27{fill:none;stroke:#BFBF60;stroke-linecap:round;stroke-miterlimit:10;} .st28{fill:none;stroke:#D8D880;stroke-linecap:round;stroke-miterlimit:10;} .st29{fill:none;stroke:#D8D480;stroke-linecap:round;stroke-miterlimit:10;} .st30{fill:none;stroke:#7C8C3A;stroke-linecap:round;stroke-miterlimit:10;} .st31{fill:none;stroke:#D88277;stroke-linecap:round;stroke-miterlimit:10;} .st32{fill:none;stroke:#EAA8A4;stroke-linecap:round;stroke-miterlimit:10;} .st33{fill:none;stroke:#D39590;stroke-linecap:round;stroke-miterlimit:10;} .st34{fill:none;stroke:#C17465;stroke-linecap:round;stroke-miterlimit:10;} .st35{fill:none;stroke:#D16B50;stroke-linecap:round;stroke-miterlimit:10;} .st36{fill:none;stroke:#068293;stroke-linecap:round;stroke-miterlimit:10;} .st37{fill:none;stroke:#045456;stroke-linecap:round;stroke-miterlimit:10;} .st38{fill:none;stroke:#08A5BA;stroke-linecap:round;stroke-miterlimit:10;} .st39{fill:none;stroke:#416C6D;stroke-linecap:round;stroke-miterlimit:10;} .st40{fill:none;stroke:#E5C0AC;stroke-linecap:round;stroke-miterlimit:10;} .st41{fill:none;stroke:#F2C7A7;stroke-linecap:round;stroke-miterlimit:10;} .st42{fill:none;stroke:#11777F;stroke-linecap:round;stroke-miterlimit:10;} .st43{fill:none;stroke:#6CD5DD;stroke-linecap:round;stroke-miterlimit:10;} .st44{fill:none;stroke:#ABD6D6;stroke-linecap:round;stroke-miterlimit:10;} .st45{fill:none;stroke:#48BDCC;stroke-linecap:round;stroke-miterlimit:10;} .st46{fill:none;stroke:#1597AF;stroke-linecap:round;stroke-miterlimit:10;} .st47{fill:none;stroke:#148493;stroke-linecap:round;stroke-miterlimit:10;} .st48{fill:none;stroke:#04939E;stroke-linecap:round;stroke-miterlimit:10;} .st49{fill:none;stroke:#CC7B44;stroke-linecap:round;stroke-miterlimit:10;} .st50{fill:none;stroke:#CE895B;stroke-linecap:round;stroke-miterlimit:10;} .st51{fill:none;stroke:#D8A380;stroke-linecap:round;stroke-miterlimit:10;} .st52{fill:none;stroke:#CB7330;stroke-linecap:round;stroke-miterlimit:10;} .st53{fill:none;stroke:#D3966C;stroke-linecap:round;stroke-miterlimit:10;} .st54{fill:none;stroke:#DDB397;stroke-linecap:round;stroke-miterlimit:10;} .st55{fill:none;stroke:#EDDDB9;stroke-linecap:round;stroke-miterlimit:10;} .st56{fill:none;stroke:#F2E7DF;stroke-linecap:round;stroke-miterlimit:10;} .st57{fill:none;stroke:#EAD9CE;stroke-linecap:round;stroke-miterlimit:10;} .st58{fill:none;stroke:#21A5B7;stroke-linecap:round;stroke-miterlimit:10;} .st59{fill:none;stroke:#10727A;stroke-linecap:round;stroke-miterlimit:10;} .st60{fill:none;stroke:#31AAAD;stroke-linecap:round;stroke-miterlimit:10;} .st61{fill:none;stroke:#67C4C6;stroke-linecap:round;stroke-miterlimit:10;} .st62{fill:none;stroke:#D89032;stroke-linecap:round;stroke-miterlimit:10;} .st63{fill:none;stroke:#BF8F56;stroke-linecap:round;stroke-miterlimit:10;} .st64{fill:none;stroke:#CE804A;stroke-linecap:round;stroke-miterlimit:10;} .st65{fill:none;stroke:#DBA486;stroke-linecap:round;stroke-miterlimit:10;} .st66{fill:none;stroke:#E5EAB7;stroke-linecap:round;stroke-miterlimit:10;} .st67{fill:none;stroke:#5C7F7F;stroke-linecap:round;stroke-miterlimit:10;} .st68{fill:none;stroke:#BADDC3;stroke-linecap:round;stroke-miterlimit:10;} .st69{fill:none;stroke:#CB7330;stroke-width:0.4;stroke-miterlimit:10;} .st70{fill:none;stroke:#E8E5D9;stroke-miterlimit:10;} .st71{fill:none;stroke:#E2DABA;stroke-miterlimit:10;}
    .plugin-stroke{stroke:black;}
  </style>

<!--  LINE  -->
  <path class="st1" d="M123.8 609.5h4017.4" id="Layer_2"/>


<!-- BIKER   -->
  <g id="Layer_16">
    <path data-start="100" class="st1" d="M716.9 431.4c14.3 14.4 24.4 33 28.4 53.7m-7.3 62.5c-16.4 36.4-52.9 61.7-95.3 61.7-57.6 0-104.4-46.9-104.4-104.4 0-57.6 46.9-104.4 104.4-104.4 23.2 0 44.7 7.6 62.1 20.5m-4.2 4.4c-16.3-11.9-36.3-18.9-57.9-18.9-54.3 0-98.4 44.2-98.4 98.4 0 54.3 44.2 98.4 98.4 98.4 41.5 0 77.1-25.8 91.5-62.2m5.6-52.3c-3.3-20.2-12.9-38.4-26.6-52.5"/>
    <path class="st3" d="M709.3 440.4c14.2 14.7 23.7 34.1 25.7 55.6m-4.5 38.6c-13 36.8-46.7 63-87.8 63-51.1 0-92.7-41.6-92.7-92.7s41.6-92.7 92.7-92.7c20 0 38.6 6.4 53.8 17.2m-9.2 11.4c-12.6-8.8-28-14-44.6-14-43.1 0-78.1 35-78.1 78.1 0 43.1 35 78.1 78.1 78.1 37.2 0 68.5-26.2 76.2-61.1m1.8-14c0-1 .1-2 .1-3 0-20.7-8.1-39.5-21.2-53.5"/>
    <path class="st1" d="M715.8 432.7c14 14.2 24 32.4 27.9 52.8m-6.9 60.4c-15.9 36.6-52.2 61.6-93.8 61.6-56.6 0-102.6-46-102.6-102.6 0-56.6 46-102.6 102.6-102.6 22.8 0 43.9 7.5 61 20.1"/>
    <path class="st1" d="M714.4 434.4c13.8 13.9 23.2 31.4 27.1 51.4m-6.1 57.9l-1 2.2c-15.7 35-50.9 59.4-91.7 59.4-55.4 0-100.5-45.1-100.5-100.5s45.1-100.5 100.5-100.5c22.3 0 42.7 7 59.4 19.4"/>
    <path class="st3" d="M707.8 442.3c13.8 14.3 23.1 35 25.1 55.9m-3.5 32.6c-11.8 36.8-46.4 64.3-86.4 64.3-49.7 0-90.2-40.5-90.2-90.2s40.5-90.2 90.2-90.2c19.5 0 37.5 6.2 52.3 16.8"/>
    <path class="st3" d="M706.3 444c13.4 13.8 23.8 35.5 24 60m-2.4 23c-10.9 38.4-45.6 64.9-84.3 64.9-48.1 0-87.3-39.2-87.3-87.3 0-48.1 39.1-87.3 87.3-87.3 18.9 0 36.3 6 50.6 16.2"/>
    <path class="st3" d="M703.5 445.7c13 13.4 24.1 34.1 23.7 62.4m-1.9 15.4c-10.2 41-45 65.2-82.4 65.2-46.5 0-84.4-37.8-84.4-84.4 0-46.5 37.8-84.4 84.4-84.4 18.2 0 35.1 5.8 48.9 15.7"/>
    <path class="st3" d="M701.2 448.1c12.5 12.9 23.3 31.3 23.1 59.9m-1.5 14.8c-9.3 38.2-44 63.1-80 63.1-44.8 0-81.2-36.4-81.2-81.2 0-44.8 36.4-81.2 81.2-81.2 17.5 0 33.8 5.6 47.1 15.1"/>
    <path class="st4" d="M745.2 510.2c1.9-5.1 5.5-9.3 10-12.2m37.6 14.6c.6 2.1.9 4.3.9 6.7 0 13.8-11.2 25.1-25.1 25.1-11.9 0-21.9-8.3-24.4-19.4m8.1.1c.8 2.1 1.9 4 3.4 5.7m-.2-22.9c-.9 1.1-1.8 2.3-2.4 3.6"/>
    <path class="st4" d="M731.8 509c3.2-11.5 11.6-20.9 22.6-25.3m-20.6 25.4c3.9-11.9 9.4-18.2 20.7-23.6m48.6 17.2c2.4 5 3.8 10.6 3.8 16.5 0 21.1-17.2 38.3-38.3 38.3-19.6 0-35.7-14.8-38-33.7m44.4-42.3c2.9.5 5.7 1.3 8.3 2.4m-5.7 6.1c-.9-.3-2.3-.7-3.3-.8m-35.7 35.4c2.5 14.3 15 25.2 30 25.2 16.8 0 30.5-13.7 30.5-30.5 0-3.8-.7-7.5-2-10.8m-42-16.7c-7.3 3.6-12.8 10.1-15.4 17.9"/>
    <path class="st5" d="M758.9 462.8c-1 1.3-1.5 3.8-1.5 3.8-.1.5-.2 1.4-.2 2V528c0 .6.2 1.4.5 1.9l6.4 5.8c.5.2 1.4.2 1.9 0l6.3-5.8c.2-.5.4-1.4.4-1.9v-60.3"/>
    <path class="st5" d="M764.2 532.8c.5.2 1.4.2 1.9 0l3.7-4.4c.2-.5.4-1.4.4-2v-55.8c0-.6-.2-1.4-.3-2 0 0-1.8-5.1-4.7-5.1-2.9 0-4.9 5.1-4.9 5.1-.2.5-.4 1.4-.4 1.9v55.8c0 .6.2 1.4.4 1.9l3.9 4.6z"/>
    <path class="st6" d="M765.1 528.8c1.4 0 2.6-1.3 2.6-4.8v-50.6c0-3.5-.7-5.6-2.2-5.6s-2.9 2.1-2.9 5.6V524c0 3.5 1.1 4.8 2.5 4.8zM765.5 474.5l-.4 48.3"/>
    <path class="st4" d="M801.6 504.4c2.1 4.6 3.3 9.7 3.3 15 0 20-16.2 36.2-36.2 36.2-18.5 0-33.8-14-36-31.9"/>
    <path class="st4" d="M800.1 505.9c1.9 4.2 2.4 9.6 2.4 14.5 0 18.7-15.2 33.4-33.9 33.4-17.3 0-32-13.2-34-30"/>
    <path class="st4" d="M798.8 507.2c1.6 3.8 2.1 7.9 2.1 12.2 0 17.7-14.1 32.4-31.9 32.4-16.1 0-29.9-12.1-32.3-27.5"/>
    <path class="st4" d="M791.1 514.7c.3 1.6.5 3.2.5 4.9 0 12.7-10.3 23.1-23.1 23.1-10.9 0-20.1-7.6-22.5-17.9m24.4 11.3c.5 0 .9-.1 1.4-.2 7.4-1.4 12.6-7.8 12.6-15.6"/>
    <path class="st4" d="M788.8 516.4c.2 1.2.3 2.4.3 3.6 0 11.5-9.3 20.8-20.8 20.8-9.8 0-18.1-6.9-20.2-16.1"/>
    <path class="st4" d="M786.6 518.4c0 .5.1 1 .1 1.5 0 10.3-8.4 18.7-18.7 18.7-8.5 0-15.7-5.7-18-13.5-.1-.3-.2-.6-.2-.9M754.9 489.5s-13.3 6.3-16.9 20M754.5 487.5s-14 5.7-18.6 21.7"/>
    <path class="st7" d="M774.4 483.2s5.2.5 7.9 2.3M774.4 485.4s2.8-.2 6.1 1.6M774.4 487.2s3.1.2 4.6 1.4"/>
    <path class="st4" d="M755.3 500.4s-5.7 4.6-7.8 10.2M754.9 503.3s-4.1 4.1-5.1 7.3M755.2 505.7s-2.7 2.8-3.6 5.5"/>
    <path class="st8" d="M764.1 561.1v13.2c0 4.3 3.5 7.7 7.9 7.7s7.9-3.5 7.9-7.7v-6"/>
    <path class="st8" d="M766.6 562.2v10.1c0 4 2.6 6.3 5.7 6.3 3 0 5.3-2.3 5.3-6.3V567"/>
    <path class="st8" d="M768.8 563.2v7.3c0 3.4 1.4 4.9 3.2 4.9 1.8 0 3.3-1.5 3.3-4.9v-4.8M772.2 564.6v7.5"/>
    <path class="st1" d="M761.4 386.6l-16.1 1.3-21.3-76m150 9.4c-.1.3-.2.5-.2.8-.4 1.5-.2 3.1.4 4.5l19.6 46.8-82.6 8.1M966.5 331l-16.2 16.7h-38.2v-16.6h5.4c4 0 7.3-3.3 7.3-7.3 0-1-.2-2-.6-2.8-.5-1.1-.9-1.9-1.9-2.7M774.1 527.2l130.7-127.1 45 107.6c1.2 2.8 3.9 4.5 6.7 4.5.9 0 1.9-.2 2.8-.6 3.7-1.6 5.5-5.8 3.9-9.6l-71.6-171h11.8v21c0 2.4 1.9 4.3 4.3 4.3H952c1.2 0 2.3-.5 3.1-1.3l23-23.7c1.6 1.3 3.5 3.6 4.1 7 1.1 5.8-1.3 16.3-18.6 33.6-1.7 1.7-1.7 4.4 0 6.1.8.8 1.9 1.3 3 1.3s2.2-.4 3-1.3c16.1-16.1 23.1-30 20.9-41.4-1-5.4-4-9.1-6.6-11.5m-270.3-11.8l21.7 77.2-99 113.9c-1.3 1.5-1.6 3.5-.9 5.3.7 1.8 2.4 3 4.3 3.2l115.1 10.7m43.8-130.8l90.5-8.5L788.6 482l-14.5 14.1m-19.3 17.1l-26.2-2.4-77.9-7.2 91.3-105 9.5-.9"/>
    <path class="st9" d="M689.8 446.4l-51.2 59s-2 3.9 2 5.8l115 10.1"/>
    <path class="st9" d="M693.8 449.6l-48.3 55.9 110 10.3M982.1 325.3c3.2 2.4 7.7 7.7 7.4 17.7-.5 15.2-20.9 33.6-20.9 33.6s-4.5 2-4-3c0 0 20.1-17 19.7-29.5 0 0 1.2-11.2-6.3-15.6l-24 25.2-2.1.9-42.9-.3s-3.8.1-3.8-3.2v-23h-18.3l33.2 78 39.8 95.8s2 5-1.2 6.5-5.5.2-7.8-4.2-39.2-94.6-39.2-94.6l-6.8-14-130.2 126.6"/>
    <path class="st9" d="M895.7 318.8h22.6c4.5.1 4 5.6 4 5.6 0 3.7-5 3.7-5 3.7H910v21.7l1.7-.1 38.9.5 1.5-.6s12.5-13.5 18.6-20.2M809.6 383.8l88.8-8.4-22-50.8c-.1-1.2 0-2.1.4-2.9M758.7 389l-14.9 1.2-21.4-76-6 .6 21.3 76.4-47.9 55.2"/>
    <path class="st10" d="M774.8 499.8l121.5-118.7-94.9 9.1M897.8 383.5L775 503.8M775.5 516.5l130.2-127.2 47.1 112.2"/>
    <path class="st11" d="M916.2 325H884c-1 0-1.8-.8-1.8-1.8s.8-1.8 1.8-1.8h32.2c1 0 1.8.8 1.8 1.8s-.8 1.8-1.8 1.8z"/>
    <path class="st9" d="M693.2 450.2l48.1-54.3 12.6-.9"/>
    <path class="st12" d="M955.2 314.8l17.1-16.1c.4-.4 1.1-.4 1.6-.1l1 .6c.5.3.5.8 0 1.1L956 314.2c-.4.3-.4.4.1.1l21.3-12.6c.5-.3 1.3-.3 1.7 0l1.2.8c.5.3.4.7-.1 1l-25.1 11.4 28.8-10.1"/>
    <path class="st13" d="M974.3 298.2c-.5-.2-.5-.3.1-.3l10 1.5c.5.1.9.6.8 1.1l-.2 1.3c-.1.5-.6.8-1.1.6l-9.6-4.2z"/>
    <path class="st14" d="M985.9 303.1l11.1 2.6c.5.1.6 0 .1-.2l-11.1-5.3"/>
    <path class="st15" d="M1003.1 305.1l-6.3-7"/>
    <path class="st13" d="M1007.2 302.8s-8.1-4-8.2-4"/>
    <path class="st15" d="M995.1 297.2l-8.3-1.5"/>
    <path class="st16" d="M986.8 295.7l-12.5.9"/>
    <path class="st17" d="M985.6 293.5l-18.1.1c-.6 0-.6.2-.1.5l.8.5c.5.3 1.3.5 1.9.4l15.5-1.5"/>
    <path class="st16" d="M970.6 296.7c-.1-.1-8.7-3.3-8.7-3.3-.5-.2-1.3-.1-1.8.1s-.4.6.1.7l9.1 2.2c.5.1.5.2 0 .1l-10.8-1.4c-.5-.1-1.4.1-1.8.4-.5.3-.4.6.2.6l13.8.7"/>
    <path class="st18" d="M970.9 297.1c-.6-.1-16.4 2.4-16.4 2.4-.5.1-1 .6-1 1.1s.5.8 1 .7l15.5-3.9c.5-.1.6-.1 0 .1l-15.4 5.8c-.5.2-.9.7-.9 1.2s.5.7 1 .4l15.3-7.4c.5-.2.5-.2 0 .1l-15.3 9.3c-.5.3-.8 1-.8 1.5s.5.7.9.4l15-11.1c.4-.3.5-.3.1.1l-15 13c-.4.4-.7 1.1-.7 1.6s.4.6.8.2l15.7-15.5"/>
    <path class="st19" d="M952.5 298.4l-15.3 3.8c-.5.1-.6.5-.2.8l.6.4c.4.3 1.2.4 1.7.2l12.4-4.9c.5-.2.6-.1.1.2l-9.9 6.2c-.5.3-.5.8 0 1.1l1.5 1.1c.4.3 1.1.3 1.5-.2l7.1-8.1c.4-.4.5-.4.2.1l-5.1 9.7c-.3.5-.1 1.1.4 1.5l1.1.7c.5.3.9.1 1.1-.4l2.8-11.4c.1-.5.2-.5.2 0l-.4 14.7"/>
    <path class="st20" d="M951 315.7l-18.2-14.4 13.3 13.8c.4.4.2.8-.3.8l-3.2.2c-.6 0-1.2-.3-1.5-.8l-7.8-13.2c-.3-.5-.4-.4-.2.1l3.9 13.2c.2.5-.2 1-.7 1l-3 .2c-.6 0-1-.4-1-.9l.6-14.4-4.7 15.6"/>
    <path class="st21" d="M921.5 317l9.2-14.9c.3-.5.2-.5-.2-.1l-13.3 14.3c-.4.4-1.1.7-1.7.8l-3.9.1c-.6 0-.6-.3-.2-.6l19-14.7c.4-.3.4-.4 0-.1l-22.9 15c-.5.3-1.3.6-1.9.6h-4c-.6 0-.6-.2-.1-.5l29.5-15.7"/>
    <path class="st22" d="M893.9 314.4l33.9-13.3c.5-.2.5-.2 0-.1l-32.6 9.2c-.5.1-.9-.2-.9-.7l.1-1.9c0-.6.5-1.1 1.1-1.2l32.3-5.5c.5-.1.5-.1 0-.1l-32 1.5c-.6 0-1-.4-1-1l.1-2.1c0-.6.5-1 1.1-.9l32.8 2.5"/>
    <path class="st16" d="M932 296.3l19 1.2c.6 0 .6.1 0 .1l-18.5.8"/>
    <path class="st13" d="M899.8 291.6l30.3 8.1c.5.1.5.2 0 .1l-31.1-6.1c-.5-.1-1.3.2-1.6.6l-.1.1c-.3.4-.2.9.4.9l33.4 4.7"/>
    <path class="st22" d="M895.5 298.6c0-.6.5-1 1.1-.9l32.5 2.9c.6 0 .6.3.1.5l-33.7 14.7c-.5.2-.9-.1-.9-.6l.9-16.6z"/>
    <path class="st21" d="M930.7 301.2c.5-.2.7 0 .5.5L924 316c-.2.5-.9.9-1.5.9l-27.9.6c-.6 0-.6-.2-.1-.4l36.2-15.9z"/>
    <path class="st20" d="M932 301.4c.2-.5.8-.7 1.3-.3l20.3 13.9c.5.3.4.6-.2.6l-27.9 1.2c-.6 0-.8-.4-.6-.9l7.1-14.5z"/>
    <path class="st19" d="M934.7 301.4c-.5-.3-.4-.6.2-.7l16.9-2.3c.5-.1 1 .3 1.1.9l1.5 15.4c.1.6-.3.7-.7.4l-19-13.7z"/>
    <path class="st18" d="M953.2 298.6c0-.6.4-1 .9-1l16.2-.7c.6 0 .7.3.3.7L955 314.9c-.4.4-.7.3-.7-.3l-1.1-16z"/>
    <path class="st12" d="M970.5 297.8c.4-.4 1.1-.5 1.5-.2l12.4 7.4c.5.3.4.7-.1.8l-28.7 9.5c-.5.2-.7 0-.3-.4l15.2-17.1z"/>
    <path class="st18" d="M994.4 317.5c.6 0 .6.2.1.4l-25.9 11c-.5.2-1.2.1-1.6-.3l-11.8-12.2c-.4-.4-.2-.7.3-.7l38.9 1.8z"/>
    <path class="st13" d="M983.9 304.5c.5.3.9.1 1-.5l.6-4.8c.1-.6-.3-1-.9-1.1l-11.7-.9c-.6 0-.6.2-.1.4l11.1 6.9zM988.2 298.6c-.5-.3-.4-.5.2-.5l6.6.4c.6 0 1.2.5 1.4 1l2.7 5.6c.2.5.1.7-.4.4l-10.5-6.9zM997.1 298.1c-.5-.3-.4-.4.1-.2l9.8 3.4c.5.2.7.7.4 1.2l-.6.9c-.3.5-.9.6-1.4.3l-8.3-5.6z"/>
    <path class="st15" d="M997.1 298.1c-.5-.3-.7-.1-.4.4l3 6.8c.2.5.8.8 1.4.6l4.3-1.4c.5-.2.6-.6.1-.9l-8.4-5.5zM995.3 297.6c.6 0 .6-.2.1-.4l-7.6-3c-.5-.2-.9.1-.9.6v1.7c0 .6.5 1 1 1h7.4z"/>
    <path class="st16" d="M986.8 294.9c0-.6-.4-.9-1-.8l-13.5 2.6c-.5.1-.5.2 0 .2l13.5.7c.6 0 1-.4 1-1v-1.7z"/>
    <path class="st17" d="M985.7 293.7c.5-.1.5-.2 0-.3l-21-1.9c-.6-.1-.6.1-.2.4l6.3 4c.5.3 1.3.4 1.8.3l13.1-2.5z"/>
    <path class="st16" d="M970.4 296.8c.6 0 .6-.3.1-.6l-6.6-4c-.5-.3-1.3-.3-1.7 0l-8.1 4.8c-.5.3-.4.5.1.5l16.2-.7zM952.2 297.7c.5-.1.6-.2 0-.3l-19.5-2.9c-.5-.1-.9.3-.8.8l.8 3.9c.1.5.7.9 1.2.9l18.3-2.4z"/>
    <path class="st13" d="M931.9 300.1c.6.1.6 0 0-.2l-30-9.6c-.5-.2-1.3 0-1.6.5l-4.5 5.2c-.4.4-.2.8.3.9l35.8 3.2z"/>
    <path class="st15" d="M932 299.9c.5.2.9-.1.7-.7l-.8-3.9c-.1-.5-.7-1-1.2-1.1l-28.7-4.1c-.5-.1-.6 0 0 .2l30 9.6z"/>
    <path class="st15" d="M903.7 290.7l27.3 5.4c.5.1 1.1.6 1.2 1.2v.1c.1.5-.2.9-.7.7l-27.9-7.7"/>
    <path class="st13" d="M995.5 298.7l.3 4.1c0 .6-.3.8-.8.4l-2.9-1.9c-.5-.3-.4-.8.1-1l3.3-1.6"/>
    <path class="st18" d="M991.8 319l-35.6-2.9c-.6 0-.6 0 0 .1l30.8 4.5c.5.1.6.3.1.5l-2.6 1.1c-.5.2-1.4.3-1.9.2l-26.3-6.2c-.5-.1-.6-.1 0 .1l22 7.9c.5.2.5.5 0 .7l-2.6 1c-.5.2-1.3.1-1.8-.1l-17.6-9.3c-.5-.3-.5-.2-.1.1l14.6 11.4"/>
    <path class="st23" d="M955.5 315.2c.2 0 30.6-7.4 30.6-7.4.5-.1 1.3.1 1.6.6l.7.9c.3.4.2.9-.4.9l-31.5 4.9c-.5.1-.5.1 0 .1l33.5-2.7c.6 0 1.3.3 1.7.7l.9 1.1c.4.4.2.8-.4.8l-36.7.1"/>
    <path class="st23" d="M984.3 305.8c.5-.2 1.2 0 1.6.5l8.9 10.5c.4.4.2.7-.4.7l-38.6-1.9c-.6 0-.6-.2 0-.4l28.5-9.4z"/>
    <path class="st14" d="M986.3 298.9c.1-.5.5-.7 1-.4l10.5 7.2c.5.3.4.5-.2.5l-11.2-.7c-.6 0-.9-.5-.9-1.1l.8-5.5z"/>
    <path class="st1" d="M926.5 406c10.5-3.6 21.8-5.5 33.6-5.5 57.6 0 104.4 46.9 104.4 104.4 0 57.6-46.9 104.4-104.4 104.4s-104.4-46.9-104.4-104.4c0-38.4 20.8-72 51.8-90.2m2.1 5.7c-28.7 17.2-47.9 48.6-47.9 84.5 0 54.3 44.2 98.4 98.4 98.4 54.3 0 98.4-44.2 98.4-98.4 0-54.3-44.2-98.4-98.4-98.4-11.1 0-21.8 1.8-31.7 5.2"/>
    <path class="st3" d="M930.9 416.9c9.2-3 19-4.7 29.1-4.7 51.1 0 92.7 41.6 92.7 92.7s-41.6 92.7-92.7 92.7-92.7-41.6-92.7-92.7c0-33.6 18-63.1 44.8-79.3m6.1 13.4c-21.8 13.9-36.2 38.2-36.2 65.9 0 43.1 35 78.1 78.1 78.1 43.1 0 78.1-35 78.1-78.1 0-43.1-35-78.1-78.1-78.1-8.3 0-16.2 1.3-23.7 3.7"/>
    <path class="st1" d="M927.3 407.7c10.4-3.5 21.4-5.4 33-5.4 56.5 0 102.5 46 102.5 102.5s-46 102.5-102.5 102.5-102.5-46-102.5-102.5c0-37.4 20.2-70.2 50.2-88.1"/>
    <path class="st1" d="M928 409.8c10.1-3.5 21-5.3 32.3-5.3 55.3 0 100.4 45 100.4 100.4 0 55.4-45 100.4-100.4 100.4-55.3 0-100.4-45-100.4-100.4 0-36.4 19.5-68.4 48.7-86"/>
    <path class="st3" d="M931.7 419.9c8.9-2.9 18.4-4.5 28.2-4.5 49.5 0 89.9 40.3 89.9 89.9 0 49.5-40.3 89.9-89.9 89.9-49.5 0-89.9-40.3-89.9-89.9 0-32.6 17.4-61.1 43.4-76.9"/>
    <path class="st3" d="M932.7 422.1c8.6-2.9 17.9-4.4 27.5-4.4 48.2 0 87.4 39.2 87.4 87.4s-39.2 87.4-87.4 87.4-87.4-39.2-87.4-87.4c0-31.7 16.9-59.5 42.2-74.8"/>
    <path class="st3" d="M933.6 425.2c8.3-2.8 17.2-4.3 26.5-4.3 46.5 0 84.3 37.8 84.3 84.3s-37.8 84.3-84.3 84.3-84.3-37.8-84.3-84.3c0-30.5 16.3-57.3 40.7-72.1"/>
    <path class="st3" d="M934.8 427.8c8-2.7 15.9-4 24.8-4 44.8 0 81.2 36.4 81.2 81.2 0 44.8-36.4 81.2-81.2 81.2-44.8 0-81.2-36.4-81.2-81.2 0-29.4 15.2-55 38.7-69.3"/>
    <path class="st22" d="M866.5 298l25.7-1.2c.6 0 .6 0 0 .1l-24.2 4.2c-.5.1-.9.6-.8 1.2 0 0 .4 2.5.6 2.5s25.7-8 25.7-8"/>
    <path class="st22" d="M893.9 297.2c.5-.2.5-.4-.1-.4l-27-.8c-.6 0-.9.4-.8 1l2.2 9.2c.1.5.7.8 1.2.6l24.5-9.6z"/>
    <path class="st24" d="M890.9 253.3l-.7 20.6c0 .6-.1.6-.1 0l-2-19.9"/>
    <path class="st25" d="M885.2 255.8l-15.1 38.3c-.2.5.1 1 .6 1l2.7.1c.6 0 1.1-.4 1.3-.9l10.2-37.5c.1-.5.2-.5.1 0l-6.1 37.7c-.1.5.3 1 .8 1h2.5c.6 0 1-.4 1.1-1l1.8-37.7c0-.6.1-.6.1 0l2.4 38c0 .6.5 1 1.1 1h3c.6 0 .9-.5.8-1l-7.3-39"/>
    <path class="st26" d="M852.1 248.2l31.3 7c.5.1.5.2 0 .1l-29.4-3.1c-.6-.1-.9.3-.7.9l1 3.3c.2.5.8.9 1.3.9l27.9-2.1c.6 0 .6 0 0 .2l-26.5 6.5c-.5.1-.8.7-.7 1.2l.9 3.1c.2.5.7.8 1.2.6l25.1-11.2c.5-.2.5-.2.1.2l-24 16.2c-.5.3-.7 1-.6 1.5l1.3 4.8c.1.5.6.7 1 .3l22.3-22.3c.4-.4.4-.4.1.1l-21 27.4c-.3.4-.5 1.2-.3 1.8l1.6 5.4c.2.5.5.6.8.1l19.6-35.1"/>
    <path class="st25" d="M890.8 275.5l4.1-13.7c.2-.5.4-.5.5 0l1.3 6.2c.1.5-.1 1.3-.5 1.7l-5.3 5.3c-.4.4-.3.7.3.7l6-.1c.6 0 1.1.4 1.2 1l.7 4c.1.5-.2.8-.7.5l-7.2-4"/>
    <path class="st26" d="M884.3 254.9c.5.2.8.7.5 1.2L866 295.7c-.2.5-.6.5-.7-.1L851.5 246c-.1-.5.2-.8.7-.7l32.1 9.6z"/>
    <path class="st25" d="M885 255.5c.2-.5.5-.5.6.1l8.7 39.4c.1.5-.2 1-.8 1l-25.2-.8c-.6 0-.8-.4-.6-1l17.3-38.7z"/>
    <path class="st24" d="M892.6 253.1c.5-.1.9.2.8.8l-3.1 20.8c-.1.5-.2.6-.4 0l-4.3-19.1c-.1-.5.2-1.1.8-1.2l6.2-1.3zM891.5 279.5c-.1-.5 0-.6.4-.2l7.4 9.7c.3.4.3 1.1-.1 1.6l-3.4 3.8c-.4.4-.8.3-.9-.2l-3.4-14.7z"/>
    <path class="st25" d="M893.4 253.9c.1-.5.2-.6.3 0l7 35.1c.1.5-.1.6-.4.2l-9.7-12.7c-.3-.4-.5-1.3-.5-1.8l3.3-20.8z"/>
    <path class="st24" d="M898.6 291.1l-6.4-10.3c-.3-.5-.4-.4-.2.1l4.9 12.4"/>
    <path class="st21" d="M876.4 319.7l13-2.7c.5-.1.6-.4.1-.6l-1.8-.7c-.5-.2-1.4-.2-1.9 0l-8.2 3c-.5.2-.6.1-.1-.3l5.2-3.9c.4-.3.4-.8-.1-1l-3.5-1.4c-.5-.2-1 .1-1.2.6l-1.4 5.2c-.1.5-.4.5-.6 0l-2.6-8.4"/>
    <path class="st21" d="M868.7 307.9c-.5-.2-.7 0-.4.5l7.1 11c.3.5 1 .8 1.5.7l15-2c.5-.1.6-.3.1-.5l-23.3-9.7z"/>
    <path class="st25" d="M894.3 297.1l-3.1 18.3c-.1.5-.6.8-1.1.6l-1.7-.7c-.5-.2-.8-.8-.6-1.3l6.3-15.9c.2-.5.1-.6-.2-.1l-9.3 14.5c-.3.5-1 .7-1.5.5l-3.6-1.5c-.5-.2-.6-.7-.2-1l14.2-12.7c.4-.4.4-.4-.1-.2l-19.9 11.6"/>
    <path class="st25" d="M893.9 297.2c.5-.2.9.1.9.6l-1.1 18.7c0 .6-.5.8-1 .6l-23.3-9.6c-.5-.2-.5-.5 0-.8l24.5-9.5z"/>
    <path class="st14" d="M830.6 369.8l-5.3-33.8c-.1-.5-.1-.5-.1 0l1.4 35c0 .6-.4 1.2-.9 1.4l-2.7 1.3c-.5.2-.9 0-.8-.6l3-37.2c0-.6 0-.6-.1 0l-8.1 40c-.1.5-.6 1.2-1.1 1.4l-3 1.5c-.5.3-.8 0-.6-.5l13-43.4"/>
    <path class="st23" d="M850.9 348.8l-23.6-11c-.5-.2-.8 0-.7.6l.7 3.3c.1.5.7 1.1 1.2 1.2l21.4 5.6c.5.1.5.2 0 .2l-20.2-1.4c-.6 0-.9.4-.8.9l.7 2.7c.1.5.7.9 1.2.8l19.1-2.8c.5-.1.6 0 .1.2l-17.9 7.1c-.5.2-.8.8-.7 1.4l.6 2.5c.1.5.6.7 1.1.4l17.8-11.7"/>
    <path class="st27" d="M844.1 329.6L830 335c-.5.2-.6.6-.1.9l2.7 1.6c.5.3 1.2.2 1.6-.1l9-7.2c.4-.3.6-.2.3.2l-5.4 9.1c-.3.5-.1 1.1.3 1.4l2.3 1.4c.5.3.9.1 1-.5l2.1-11.3c.1-.5.2-.5.2 0l.8 13.2c0 .6.5 1.2.9 1.5l1.8 1c.5.3.8.1.6-.5l-4-16.1"/>
    <path class="st20" d="M825.1 333.2l-7.6-5.1c-.5-.3-.4-.5.2-.5l3.2.2c.6 0 1.3.4 1.6.9l2.4 3.8c.3.5.6.4.6-.2l.3-3.3c0-.6.5-1 1.1-.9l2.9.2c.6 0 .7.4.2.7l-4.1 3.6c-.4.4-.3.5.2.3l8.4-3.7c.5-.2 1.4-.4 1.9-.4l2.9.1"/>
    <path class="st28" d="M845.7 332.4l19.6 2.4c.6.1.5.2 0 .2l-17.1 1.5c-.6 0-.9.5-.7 1l1 2.8c.2.5.8.8 1.3.6l15.5-5.6c.5-.2.6-.1.1.2l-15.1 10.1"/>
    <path class="st23" d="M867 334.3l-2.1-20.1c-.1-.6-.5-.7-.9-.4l-1 .8c-.4.4-.7 1.1-.5 1.6l4.3 17c.1.5 0 .6-.2.1l-7.2-14.6c-.2-.5-.8-.6-1.2-.3l-2 1.6c-.4.3-.5 1-.1 1.4l10.5 12.4c.4.4.3.5-.2.2l-13.6-9.9c-.4-.3-1.2-.3-1.6 0l-2.4 1.9c-.4.3-.4.8.1 1l18.3 7.5"/>
    <path class="st29" d="M864.8 313.2l-21.6-20.3c-.4-.4-.4-.3-.1.1l18.4 21.6c.4.4.3 1-.1 1.4l-1.7 1.3c-.4.3-1 .2-1.3-.2l-15.4-24c-.3-.5-.4-.4-.1.1l12.1 26.7c.2.5.1 1.2-.4 1.5l-1.9 1.5c-.4.3-.9.2-1.1-.3l-8.9-29.3c-.2-.5-.2-.5-.1 0l5.3 33.5"/>
    <path class="st22" d="M841.5 292.9l1.1 35.3c0 .6-.4 1-1 .9l-1.5-.1c-.6 0-1-.5-.9-1.1l2.2-34c0-.6 0-.6-.1 0l-5.9 33.8c-.1.5-.6 1-1.2.9l-2.6-.2c-.6 0-.9-.5-.7-1.1l10.2-33.3c.2-.5.4-1 .4-1.1L826.2 327c-.2.5-.9.9-1.4.8l-2.7-.2c-.6 0-.8-.5-.5-.9l19.4-33c.3-.5.2-.5-.1-.1l-25 33.7"/>
    <path class="st25" d="M841.5 292.2l-53 30.6c-.5.3-.4.6.1.7l3.5.6c.5.1 1.4-.1 1.8-.4l46.4-31c.5-.3.5-.3 0 .1l-40.9 31.7c-.4.3-.3.7.2.8l3.4.6c.5.1 1.3-.1 1.7-.5l35.9-32.4c.4-.4.4-.3.1.1L809.6 327"/>
    <path class="st26" d="M803.7 275.6l37 15.7c.5.2.5.3 0 .1l-38.5-12.5"/>
    <path class="st26" d="M798.8 286.4l41.8 5.1c.6.1.6 0 0-.1l-40.2-9M797.1 290.1l42.8 1.5c.6 0 .6.1 0 .1l-43.9 3.4c-.6 0-1.2.5-1.4 1l-.9 2c-.2.5 0 .9.6.8l45.5-7.1c.5-.1.6-.1 0 .1l-47.4 11.2c-.5.1-1.2.6-1.4 1.2l-1.3 2.9c-.2.5 0 .8.6.6l49.7-15.7c.5-.2.8-.2.5-.1s-.8.4-1.4.6l-51 19.8c-.5.2-1.1.8-1.3 1.3l-1.6 4c-.2.5 0 .7.5.5l55-26.5"/>
    <path class="st26" d="M783.5 321.7c-.2.5 0 .7.5.5l57.4-30c.5-.3.5-.7 0-.9l-36.1-16.9c-.5-.2-1.1 0-1.3.5l-20.5 46.8z"/>
    <path class="st25" d="M841.4 292.2c.5-.3.6-.1.2.3l-29.5 33.9c-.4.4-1.1.7-1.7.6l-26.4-4.2c-.5-.1-.6-.4-.1-.6l57.5-30z"/>
    <path class="st22" d="M841.6 292.5c.4-.4.7-.3.7.2l2.3 35.5c0 .6-.4 1-.9.9l-31.2-2c-.6 0-.7-.4-.3-.8l29.4-33.8z"/>
    <path class="st29" d="M842.3 292.7c0-.6.3-.7.7-.4l23.6 18.3c.4.3.4.9 0 1.2l-21.1 16.7c-.4.3-.8.2-.9-.4l-2.3-35.4z"/>
    <path class="st20" d="M843.7 329.2c.6 0 .6.2 0 .3l-17.4 3.6c-.5.1-1.4 0-1.9-.2l-12-5.3c-.5-.2-.5-.4.1-.3l31.2 1.9z"/>
    <path class="st23" d="M845.5 328.6c-.4.3-.3.7.2.9l20.8 5c.5.1 1-.2 1-.8v-21.4c0-.6-.4-.7-.8-.4l-21.2 16.7z"/>
    <path class="st28" d="M845.7 329.5c-.5-.1-.8.2-.6.7l6.1 17.4c.2.5.7.7 1.1.3l14.5-12.6c.4-.4.3-.8-.2-.9l-20.9-4.9z"/>
    <path class="st27" d="M845 330.2c-.2-.5-.8-.9-1.3-.7l-17.4 3.6c-.5.1-.6.4-.1.7l24.4 14.3c.5.3.7.1.5-.4l-6.1-17.5z"/>
    <path class="st14" d="M825 334.2c.2-.5.5-.5.6 0l8.2 33c.1.5-.2 1.2-.7 1.4L808.4 381c-.5.2-.7 0-.6-.5l17.2-46.3z"/>
    <path class="st23" d="M826.2 333.8c-.5-.3-.8-.1-.6.5l8.2 33c.1.5.5.6.9.2l16.1-18.1c.4-.4.3-1-.2-1.3l-24.4-14.3z"/>
    <path class="st30" d="M825.3 333.3l14.3-4.4"/>
    <path class="st31" d="M930.6 198.7c-.3-.4-.5-.3-.4.2l5.7 25.6c.1.5.6.8 1.2.7l10.5-3.7c.5-.2.7-.7.3-1.1l-17.3-21.7z"/>
    <path class="st32" d="M955.4 204.4l.6 15.9c0 .6-.4 1-1 .9h-.4c-.6-.1-1-.6-.9-1.1l1.5-14.7c.1-.6 0-.6-.1 0l-3.8 15.5"/>
    <path class="st33" d="M932.1 199.2l20.8 5.7c.5.1.9.7.7 1.2l-.3 1c-.1.5-.7.8-1.2.6l-19.1-8.1c-.5-.2-.5-.2 0 .1l18.4 10.3c.5.3.7.9.5 1.4l-.3 1c-.2.5-.7.7-1.1.4l-17.5-13c-.4-.3-.5-.3-.1.1l16.7 15.4c.4.4.6 1.1.4 1.6l-.2.6c-.2.5-.7.6-1 .2l-16.7-18.5"/>
    <path class="st32" d="M945.1 225.7l-6.4 2.4c-.5.2-.7.8-.5 1.2l.4.7c.3.5.8.6 1.3.3l5-4"/>
    <path class="st31" d="M940 233.4l-3.7-4.2c-.4-.4-.7-.3-.8.2l-.2 1.7c-.1.6.3 1.1.9 1.2l2.8.7c.5.1.6.4 0 .6l-3.2 1.1c-.5.2-1 .8-1.2 1.3l-.1.6c-.1.5.1.7.6.4l4.9-3.6"/>
    <path class="st34" d="M935.6 225.8l-13.2-.8c-.6 0-.7.3-.4.7l1.1 1.4c.3.4 1.1.7 1.6.6l9.8-1.8c.5-.1.6 0 .1.3l-7.5 4c-.5.3-.6.8-.3 1.3l1.2 1.7c.3.5.9.5 1.2 0l5.6-6.7c.4-.4.5-.3.3.2l-3.6 10.8"/>
    <path class="st35" d="M918 224.9l14.5 14.8c.4.4.4.4-.1.1l-15.3-12.1c-.4-.3-1.1-.3-1.5.1l-.2.2c-.4.4-.3 1 .1 1.3l16.7 10.7c.5.3.4.3 0 .1l-19.1-9.7"/>

    <path class="st34" d="M919 223.1c-.2 0-9.4.5-9.4.5-.6 0-.8.5-.6 1l.4 1c.2.5.8.8 1.3.6l7.6-2.8c.5-.2.6-.1.2.3l-7.6 6"/>
    <path class="st36" d="M920.3 207.4c-.2.5-.2.5.1.1l6.2-9c.3-.5.1-1-.4-1.1l-.2-.1c-.5-.2-1.2.1-1.4.6l-4.3 9.5z"/>
    <path class="st37" d="M919.3 201.6l-.7 6.1c-.1.6-.3.6-.4 0l-.9-2.7c-.2-.5-.6-.6-1-.2L915 206c-.4.4-.3.9.2 1.1l2.3 1.1c.5.2.5.5-.1.5l-5.8.4"/>
    <path class="st35" d="M906.1 214.6l10.8-4.2c.5-.2.5-.1.1.1l-9.6 5.6c-.5.3-.7.9-.6 1.5l.1.4c.2.5.6.7 1.1.3l9.8-8.3"/>
    <path class="st36" d="M905.5 214.6c-.1-.2-3.9-4-3.9-4-.4-.4-.6-.3-.5.3l.4 2.2c.1.5.6 1.1 1.2 1.1l1.8.3c.5.1.6.4.2.8l-1.7 1.3c-.4.3-.7 1.1-.6 1.6l.6 3.5c.1.5.3.6.5 0l2-7.1"/>
    <path class="st35" d="M905.8 192.3l-1.3 18.3c0 .6-.3.6-.6.1l-.3-.6c-.3-.5-.4-1.3-.3-1.9l2.4-15c.1-.5 0-.6-.1 0L902 206c-.2.5-.5.6-.8.1l-.3-.5c-.3-.5-.4-1.3-.1-1.8l5-11.5"/>
    <path class="st32" d="M906.6 192.6l5.5 12.9c.2.5.1 1.3-.2 1.7l-.6.7c-.4.4-.7.3-.9-.2l-3.3-13c-.1-.5-.3-1.3-.4-1.6-.1-.3-.1-.2 0 .4l2.2 15.7c.1.5-.2 1.3-.5 1.7l-.5.5c-.4.4-.7.3-.7-.3l-.6-18.5"/>
    <path class="st33" d="M920.8 198.2l-12.3-5.2c-.5-.2-.6-.1-.1.2l9.5 6.2c.5.3.5.9.1 1.2l-1 .9c-.4.4-1 .3-1.4-.1l-8.1-8.9M932.1 198.9c-.5-.1-.7.2-.4.6l16.2 20.8c.3.4.8.4.9-.2l5.6-16.1c.2-.5-.1-1-.7-1.1l-21.6-4z"/>
    <path class="st33" d="M908.4 192.6c-.5-.2-.7.1-.4.5l6.5 10.3c.3.5.9.5 1.3.1l5.7-5.7c.4-.4.3-.9-.2-1l-12.9-4.2z"/>
    <path class="st32" d="M955.8 204.3c-.1-.6-.3-.6-.4 0l-5.5 15.9c-.2.5.1 1 .7 1l6.4.5c.6 0 1-.4.9-.9l-2.1-16.5zM937.1 225.5c-.6 0-.8.4-.5.9l3.4 6.4c.3.5.7.5 1 0l4.1-6.5c.3-.5.1-.9-.5-.9h-7.5zM906.4 192.3c-.3-.5-.5-.4-.5.2v20.8c0 .6.3.7.7.2l6.9-8c.4-.4.4-1.2.1-1.6l-7.2-11.6z"/>
    <path class="st31" d="M936.6 226.4c-.3-.5-.5-.4-.6.1l-1.9 13.2c-.1.5.2.7.5.3l5.2-5.5c.4-.4.5-1.1.2-1.6l-3.4-6.5z"/>
    <path class="st34" d="M936 226.5c.1-.5-.3-1.1-.9-1.2l-14.2-2.2c-.5-.1-.7.2-.4.6l12.7 16.1c.3.4.7.3.8-.2l2-13.1zM919 222.9c.5.1.7.5.3.9l-7.1 7.4c-.4.4-.8.3-1-.2l-3-8.8c-.2-.5.1-.9.7-.8l10.1 1.5z"/>
    <path class="st35" d="M920.6 223.8c-.3-.4-.9-.5-1.3-.1l-7.1 7.4c-.4.4-.3.9.2 1.1l20.6 8.1c.5.2.7 0 .3-.4l-12.7-16.1zM918.1 210.2c.4-.4.3-.6-.3-.4l-11.1 4c-.5.2-.8.8-.7 1.3l1.4 5c.2.5.6.6 1 .2l9.7-10.1z"/>
    <path class="st38" d="M936.6 191.4c.4-.4 1.1-.5 1.6-.3l31.2 13.7c.5.2.5.3-.1.2l-38.4-6.9c-.5-.1-.7-.5-.3-.9l6-5.8z"/>
    <path class="st38" d="M967.2 204.3L937 192.2c-.5-.2-1.3-.1-1.7.3l-.7.7c-.4.4-.3.9.2 1l25 8.8c.5.2.5.2 0 .1l-26.7-7.3c-.5-.1-1.2 0-1.5.3-.3.3-.1.7.4.8l10.2 3.1"/>
    <path class="st31" d="M931.7 200.9c-.3-.4-.5-.4-.4.2l5.5 22.1c.1.5.7.8 1.2.6l7.8-2.8c.5-.2.7-.7.3-1.1l-14.4-19z"/>
    <path class="st36" d="M900.5 207c-.1-.5.1-.6.3-.1l4.1 6.9c.3.5.5 1.3.4 1.9l-1.2 11.4c-.1.6-.2.6-.3 0l-3.3-20.1z"/>
    <path class="st37" d="M905.8 216.8c.1-.6.3-.6.4 0l4.9 14.2c.2.5-.1 1-.7 1h-5.3c-.6 0-1-.5-.9-1l1.6-14.2z"/>
    <path class="st37" d="M906.1 216.5l3.4 14.2c.1.5-.2 1-.7 1s-1-.4-1.1-1l-1.5-13.3c-.1-.6-.1-.5-.1 0l-.3 14.2"/>
    <path class="st31" d="M931.6 200.7l12.7 19.9c.3.5.1 1-.4 1.2l-1 .3c-.5.2-1.1-.1-1.4-.6l-9.5-19.9c-.2-.5-.3-.5-.1 0l7.3 21.8"/>
    <path class="st33" d="M937.4 225.1l9.9-2.3c.5-.1 1 .1 1 .6 0 .4-.5.8-1 .9l-10.1.9"/>
    <path class="st33" d="M937.1 225.2c-.5.2-.5.3.1.3h10.4c.6 0 1-.5 1-1v-2.3c0-.6-.4-.9-1-.7l-10.5 3.7z"/>
    <path class="st37" d="M909.9 210.9c-.4.4-.3.6.3.4l7.4-2.4c.5-.2 1.1-.7 1.3-1.3l2.6-7.9c.2-.5 0-.6-.4-.2l-11.2 11.4z"/>
    <path class="st36" d="M922.8 197.5c.2-.5.7-.8 1.3-.7l4.3 1.3c.5.2.7.6.3 1l-9 9.8c-.4.4-.5.3-.4-.2l3.5-11.2z"/>
    <path class="st33" d="M930.1 200.1c-.1-.5-.5-.6-.9-.2l-18.9 20c-.4.4-.2.8.3.9l24.5 3.8c.5.1.9-.3.8-.8l-5.8-23.7z"/>
    <path class="st33" d="M929.6 199.6l3.6 23.7c.1.5-.3.9-.8.8l-1.7-.2c-.5-.1-1-.6-1-1.2l-.1-22.1c0-.6-.1-.6-.1 0l-3 21.6c-.1.5-.6.9-1.1.8l-2-.3c-.5-.1-.9-.6-.7-1.1l6.6-21c.2-.5.1-.6-.1-.1l-10 20.5c-.2.5-.9.8-1.4.8l-2.3-.3c-.5-.1-.7-.5-.4-1l14.5-20.9"/>
    <path class="st39" d="M852.6 267.2l-1.5-18.6c0-.6-.1-.6-.2 0l-1.7 17.9c-.1.6-.5 1-1.1 1l-2.1.1c-.6 0-.9-.4-.7-.9l5.7-19.1"/>
    <path class="st40" d="M863.9 192.6l-12.1 48.8c-.1.5-.2.5-.1 0l8.3-47.6c.1-.5-.3-1-.8-1h-1.8c-.6 0-1.1.5-1.1 1l-4.6 48.1c-.1.6-.1.5-.1 0l1.1-48.1c0-.6-.4-1-1-1l-2.2.1c-.6 0-1 .5-.9 1.1l2.9 48.9"/>
    <path class="st41" d="M843.2 193.8l5.8 32.5c.1.5.1.6-.1 0l-8.2-29.2c-.1-.5-.6-.7-1-.3l-1.2 1c-.4.4-.6 1.1-.4 1.6l10.7 27.3c.2.5.2.5-.1 0l-13.2-25.2c-.3-.5-.8-.6-1.2-.2l-.3.3c-.4.4-.5 1.1-.2 1.5l14.6 23.6c.3.5.2.5-.1.1l-17.2-21.3c-.3-.4-1-.5-1.4-.1l-.9.8c-.4.4-.4 1 0 1.4l19.4 19.5"/>
    <path class="st26" d="M827.4 209.5l17.6 17.9c.4.4.3.7-.3.7l-2.7-.1c-.6 0-1.3-.4-1.6-.9l-13.3-17.4c-.3-.4-.4-.4-.1.1l9.7 17c.3.5 0 .9-.5.8l-2.9-.1c-.6 0-1.1-.5-1.3-1l-5.2-17.2"/>
    <path class="st25" d="M831.4 229.3l16.2-.5c.6 0 .6.1 0 .2l-11.6 2.8c-.5.1-.6.5-.2.8l1.6 1.2c.4.3 1.2.4 1.7.1l9.3-5.2c.5-.3.8-.4.6-.2s-.5.6-.9 1l-6.3 6.5c-.4.4-.3 1 .1 1.3l2.1 1.6c.4.3 1 .2 1.2-.3l3.5-8.8c.2-.5.4-.5.4.1 0 0-.2 12.3-.2 12.5"/>
    <path class="st37" d="M850.5 244.8L831 232.2c-.5-.3-.7-.1-.6.4l.7 2.7c.1.5.7 1.2 1.2 1.4l17.7 7.9c.5.2.5.3-.1.2l-16.2-3.7c-.5-.1-.9.2-.7.8l.6 2.4c.1.5.7 1 1.3 1l14.6-.1c.6 0 .6.1 0 .3l-13.4 3.8c-.5.2-.9.7-.7 1.2l.8 3.1c.1.5.6.7 1.1.4l12.4-8c.5-.3.5-.2.2.2l-11.3 12.5c-.4.4-.6 1.2-.4 1.7l1 3.6c.1.5.5.6.8.1l11-19"/>
    <path class="st42" d="M829.2 231.7l-4.5 33.3c-.1.5.3 1.1.9 1.1l.5.1c.6.1 1-.3 1.1-.9l2-33.6c0-.5.1-.5 0 0l.6 33.7c0 .6.5 1.1 1 1.1l1.3.2c.5.1 1-.3.9-.9l-3.6-35.1c-.1-.6 0-.6.1 0l6.4 35.5c.1.5.6 1 1.2 1.1l.4.1c.6.1.9-.3.8-.9l-8.8-37.1"/>
    <path class="st43" d="M857.2 185.6l6.1 5.9c.4.4.3.7-.3.7h-2c-.6 0-1.2-.4-1.5-.9l-2.6-4.7c-.3-.5-.5-.4-.5.1l.1 4.6c0 .6-.4 1-1 1h-1.3c-.6 0-.8-.4-.6-.9l1.7-4.3c.2-.5.1-.6-.3-.2l-5.2 5.6"/>
    <path class="st44" d="M853.2 185.6l-7.6 5.8c-.4.3-.6.2-.3-.2l2.9-4.5c.3-.5.1-.8-.5-.8l-2.8.2c-.6 0-1 .5-.9 1.1l.2 3.9c0 .6-.2.6-.4.1l-2.1-4.1c-.3-.5-.9-.9-1.5-.8l-2.5.2c-.6 0-.7.4-.2.7l4.8 4c.4.4.4.5-.1.2l-8.6-4.1c-.5-.2-1.4-.4-1.9-.4l-2.4.2c-.6 0-.6.2-.1.4l11 3.8"/>
    <path class="st45" d="M825.8 207.7l-3-18.8c-.1-.5-.6-.9-1.1-.7l-.9.2c-.5.2-.8.7-.7 1.2l5.4 17.1c.2.5.1.5-.1 0l-7.4-16.6c-.2-.5-.8-.8-1.4-.6l-1.1.3c-.5.2-.7.7-.5 1.2l8.6 15.1c.3.5.2.5-.1.1L812 191.7c-.3-.4-1.1-.7-1.6-.5l-2.4.8c-.5.2-.6.6-.2 1l13.3 12.2c.4.4.4.4-.1.1L803.9 193"/>
    <path class="st43" d="M825.2 187.8l17.1 5.7c.5.2.6.6.2 1l-1.2 1.1c-.4.4-1.2.5-1.7.2l-11.4-5.6c-.5-.2-.6-.2-.1.2l9 7.5c.4.4.4.9 0 1.3l-1.2 1c-.4.4-1.1.3-1.4-.1l-9.2-10.5c-.4-.4-.4-.4-.1.1l7.6 11.9c.3.5.2 1.1-.2 1.5l-1.3 1.1c-.4.4-.9.2-1.1-.3l-4.8-11.8c-.2-.5-.3-.5-.2.1l2.9 14.8"/>
    <path class="st46" d="M801.6 195.8l1.6 33c0 .6.5 1 1.1.9l1.6-.2c.6-.1.9-.6.9-1.1l-4.7-32.8c-.1-.5 0-.6.1 0l7.7 32.8c.1.5.7.9 1.2.9l1.3-.1c.6 0 .9-.5.7-1L803 196.6c-.2-.5-.1-.5.1 0l13.4 31.4c.2.5.8.9 1.4.8l1.4-.1c.6 0 .8-.5.5-1L804 198c-.3-.5-.2-.5.1 0l19 29.3c.3.5 1 .8 1.6.8l1.7-.2c.6-.1.7-.5.4-.9l-20.5-27.1"/>
    <path class="st39" d="M841.5 267c-.2.5 0 .9.6.9l13-.6c.6 0 .9-.5.8-1l-4.5-18.9c-.1-.5-.4-.6-.7-.1l-9.2 19.7z"/>
    <path class="st44" d="M855.9 185.8c.5-.3.4-.5-.1-.5l-30.5 2c-.6 0-.6.2 0 .3l18.5 4.7c.5.1 1.4 0 1.8-.3l10.3-6.2z"/>
    <path class="st43" d="M857.6 185.8c-.5-.3-1.2-.3-1.7 0l-10.3 6.2c-.5.3-.4.5.1.5l20-.5c.6 0 .6-.3.2-.6l-8.3-5.6zM843.7 192.3c.5.1.6.5.2.9L827 207.5c-.4.4-.8.2-.9-.4l-1.8-18.8c-.1-.6.3-.9.9-.8l18.5 4.8z"/>
    <path class="st45" d="M824.3 188.4c-.1-.6-.5-.9-.9-.8s-1.3.4-1.8.5l-19 5.4c-.5.2-.6.5-.1.8l22.9 13.3c.5.3.8.1.8-.5l-1.9-18.7z"/>
    <path class="st46" d="M802.2 194.6c-.4-.4-.6-.3-.7.2l-.9 34.3c0 .6.4 1 1 .9l26.6-2.3c.6 0 .7-.4.4-.9l-26.4-32.2z"/>
    <path class="st42" d="M829 230.8c.1-.5.3-.6.5 0l10 36c.1.5-.2.9-.7.9l-15.2-1.7c-.6-.1-.9-.6-.8-1.1l6.2-34.1z"/>
    <path class="st37" d="M800.8 231.5c-.3-.5-.5-.4-.4.1l3.8 41.3c.1.6.5.8 1 .6l15.2-6.7c.5-.2.7-.8.4-1.3l-20-34zM829.4 228.6c-.1-.5.1-.7.5-.4l20.7 15.6c.4.3.6 1 .4 1.5l-10.4 22c-.2.5-.6.5-.7-.1l-10.5-38.6z"/>
    <path class="st47" d="M825.4 207.7c.5.3.9 1 1 1.5l2.6 17.5c.1.5-.1.6-.5.2l-26.3-32.3c-.4-.4-.2-.6.2-.3l23 13.4z"/>
    <path class="st40" d="M864.9 192.6c.6 0 .9.4.7 1l-13.3 48.2c-.1.5-.3.5-.4 0l-6.4-47.7c-.1-.5.3-1 .9-1l18.5-.5z"/>
    <path class="st41" d="M844.8 193.6c-.1-.5-.5-.7-.9-.3L827 207.5c-.4.4-.4.9 0 1.3l21.6 18.7c.4.4.7.2.6-.3l-4.4-33.6z"/>
    <path class="st26" d="M848.6 227.6c.4.4.3.6-.2.6l-18.2-.5c-.6 0-1.1-.5-1.2-1l-2.6-17.5c-.1-.5.2-.7.6-.3l21.6 18.7z"/>
    <path class="st25" d="M849.5 229.2c-.1-.5-.6-1-1.1-1l-18.2-.5c-.6 0-.6.2-.2.6l20.7 15.6c.4.3.7.2.7-.4l-1.9-14.3z"/>
    <path class="st47" d="M803.1 195.2l21.1 13c.5.3.9 1 1 1.5l2.7 15.3c.1.5.1.6-.1 0l-4.1-14.6c-.2-.5-.7-1.2-1.1-1.5l-16.3-10.1c-.5-.3-.6-.2-.2.3l2.5 3.2c.3.4 1 1 1.5 1.3l10.4 6.4c.5.3 1 1 1.2 1.5L825 222c.2.5 0 .6-.3.2l-3.5-4.1c-.4-.4-.7-1.2-.8-1.8l-.6-3.4c-.1-.5-.6-1.2-1-1.5l-5.3-3.2"/>
    <path class="st37" d="M800.7 231.8l18.2 34.4c.3.5.1 1.1-.4 1.3l-.8.4c-.5.2-1.1 0-1.3-.5l-15.2-34.2c-.2-.5-.3-.5-.1 0l12.5 35.4c.2.5-.1 1.1-.6 1.4l-1.3.6c-.5.2-1 0-1.2-.6l-9.6-36.1c-.1-.5-.2-.5-.1 0l7 37.1c.1.5-.2 1.2-.7 1.4l-.2.1c-.5.2-1 0-1-.5l-5.2-36.8"/>
    <path class="st39" d="M828.2 227.7c.6 0 .9.4.8.9l-7.4 36.7c-.1.5-.4.6-.7.1L801.1 231c-.3-.5 0-.9.5-1l26.6-2.3z"/>
    <path class="st39" d="M827.2 227.8l-5.6 36.3c-.1.5-.1.5-.1 0l1.9-34.9c0-.6-.4-1-.9-.9l-1.2.1c-.6.1-1 .6-1 1.1l.7 34.8c0 .6 0 .6-.1 0l-4.3-34.5c-.1-.6-.6-1-1.1-.9l-1.8.2c-.6.1-.9.5-.8 1.1l7.4 33.6c.1.5.1.6-.1 0L810 230.3c-.2-.5-.7-.9-1.3-.9l-2.2.2c-.6.1-.8.5-.6 1l13 31.2"/>
    <path class="st43" d="M916.4 174L894 139.5c-.3-.5-.5-.4-.5.2l.3 3.7c.1.6.4 1.4.7 1.8l19.5 27.9c.3.5.3.5-.1.1l-19.5-23"/>
    <path class="st48" d="M892.8 155.2l21.5 20.7c.4.4.4.4-.1.1l-23-18.5c-.4-.3-1.2-.4-1.6-.1l-1 .7c-.5.3-.5.8 0 1.1l21.6 15.1c.5.3.4.4-.1.1l-25.5-13.7"/>
    <path class="st49" d="M960 174.8l-8.4-9.1c-.4-.4-.5-.3-.2.1l5.1 9.3c.3.5.1 1-.5 1.2l-1.3.4c-.5.2-1.1-.1-1.2-.7l-2.3-7.9"/>
    <path class="st50" d="M967.5 197.5l-8.7-21c-.2-.5-.8-.8-1.4-.7l-1.7.5c-.5.2-.7.7-.5 1.2l12.4 22.2"/>
    <path class="st51" d="M940.1 179.2l-1.7-1.1c-.5-.3-1.3-.5-1.9-.4l-.6.1c-.6.1-.6.4-.2.7l3.1 2.1c.5.3.7 1 .6 1.5l-.1.4c-.1.5-.6.7-1.1.4l-5.8-4c-.5-.3-1.3-.5-1.8-.5l-.8.1c-.6.1-.6.4-.2.7l8.1 6.1c.4.3.7 1 .6 1.6l-.1.4c-.1.5-.6.7-1.1.4l-12.6-8.6"/>
    <path class="st52" d="M966.4 199.5l-16.4-21c-.3-.4-1-1.1-1.4-1.4l-42.4-33.7c-.4-.3-.4-.3 0 0l41.6 34.6c.4.4 1 1 1.4 1.5l14.2 18.9c.3.4.3.5-.1 0l-14.9-17.2c-.4-.4-1-1.1-1.4-1.4l-46-39.5c-.4-.4-.4-.4 0 0l45 40.5 1.4 1.4 6.8 7.7"/>
    <path class="st50" d="M937.4 190l27.4 11.8c.5.2 1.3.6 1.8.8s.5.2 0-.1L939 187.9c-.5-.3-.8-.9-.7-1.5l.2-1c.1-.5.6-.7 1.1-.4l27 17.4c.5.3.5.3.1-.1l-26.3-20.5c-.4-.3-.7-1.1-.6-1.6l.5-1.9c.1-.5.6-.7 1-.3l21.1 20.2"/>
    <path class="st52" d="M969.8 204.3c.3.5.2.5-.2.1l-74.7-69.7c-.4-.4-.4-.4.1-.1l55.1 42c.4.3 1.1 1 1.4 1.4l18.3 26.3z"/>
    <path class="st50" d="M968 200.5c.3.5.5.4.3-.1l-7.2-24.6c-.2-.5-.7-.8-1.2-.7l-7 2.2c-.5.2-.7.7-.4 1.1l15.5 22.1z"/>
    <path class="st49" d="M960.4 174.6c.5-.2.6-.6.2-1l-9-8.7c-.4-.4-.7-.2-.6.3l.9 11.3c0 .6.5.9 1 .7l7.5-2.6z"/>
    <path class="st50" d="M969.6 204.5c.4.4.3.5-.2.3l-31.2-13.7c-.5-.2-.8-.8-.7-1.4l2.8-11.4c.1-.5.6-.7 1-.3l28.3 26.5z"/>
    <path class="st51" d="M940.3 178.3c.1-.5-.2-.9-.8-.9l-18.2 2.1c-.6.1-.6.4-.2.7l15.3 10c.5.3 1 .1 1.1-.4l2.8-11.5z"/>
    <path class="st53" d="M937.4 177.7L897 137.4c-.4-.4-.4-.4 0 0l35.6 39.9c.4.4.2.8-.3.8l-1.6.2c-.6.1-1.3-.3-1.6-.7l-32.9-40.1c-.4-.4-.4-.4-.1.1l28.4 41.7"/>
    <path class="st53" d="M921.5 179.1c-.6.1-1.2-.3-1.5-.8L894.3 135c-.3-.5-.2-.6.2-.2l45.3 41.7c.4.4.3.7-.3.8l-18 1.8z"/>
    <path class="st43" d="M893.6 135.8c-.3-.5-.5-.4-.4.1l1.6 16.8c.1.6.4 1.3.8 1.7l22.9 23.3c.4.4.5.3.2-.1l-25.1-41.8z"/>
    <path class="st48" d="M894.9 155c-.4-.4-1.1-.5-1.6-.2l-10.5 7c-.5.3-.4.7.1 1l33.3 14.1c.5.2.6.1.2-.3L894.9 155z"/>
    <path class="st51" d="M927 159.1l21.2 3.1c.5.1.5.2 0 .2l-15 .6c-.6 0-.6.3-.2.7l3.6 2.8c.4.3 1.2.5 1.8.3l9.6-3.3c.5-.2.7 0 .3.5l-4.8 6.3c-.3.4-.3 1.1.2 1.4l4.1 3.3c.4.3.8.2.9-.4l.9-11.4"/>
    <path class="st54" d="M949.2 161.8c.5.1.6 0 .1-.3l-54.2-27c-.5-.2-.5-.2-.1.2l28.6 21.8c.4.3 1.2.7 1.8.8l23.8 4.5z"/>
    <path class="st54" d="M899.6 138.2l44.6 22.4c.5.2.5.4-.1.3l-7.5-1.4c-.5-.1-1.4-.4-1.9-.6l-24.5-12.5"/>
    <path class="st55" d="M895.1 134.6c-.5-.2-.5-.3 0-.1l63.7 22.4c.5.2.5.5.1.8l-7.8 4c-.5.3-1.3.3-1.8 0l-54.2-27.1z"/>
    <path class="st55" d="M957.9 158.1l-53.1-18.8c-.5-.2-.5-.1 0 .1l13.8 6.9c.5.2 1.3.6 1.8.8l33.5 13.1"/>
    <path class="st56" d="M958.9 157.6c.5-.3 1 0 1.1.5l2.3 14.8c.1.5-.2.7-.6.3l-10.8-10.5c-.4-.4-.3-.9.2-1.2l7.8-3.9z"/>
    <path class="st56" d="M957.9 158.1l3.2 12.2c.1.5 0 .6-.2.1l-5.5-9.8c-.3-.5-.9-.7-1.4-.4l-.4.2c-.5.3-.6.8-.3 1.3l6.8 10.1"/>
    <path class="st57" d="M959.9 158.1c-.1-.5.1-.6.4-.1l9 15.1c.3.5.1.9-.5.9h-5.4c-.6 0-1.1-.4-1.2-1l-2.3-14.9z"/>
    <path class="st57" d="M966.8 174l-5.6-14.1c-.2-.5-.3-.5-.2 0l3.1 14"/>
    <path class="st55" d="M968.8 174.8c.6 0 1 .4 1 1l.5 28.4c0 .6-.1.6-.3 0l-8-28.4c-.2-.5.2-1 .7-1h6.1z"/>
    <path class="st55" d="M968.4 175.2l1.8 23.7c0 .6 0 .6-.1 0l-3.9-23.2c-.1-.5-.6-1-1.1-1s-.9.5-.8 1l4.3 22c.1.5.2 1.3.3 1.7s.1.7.1.7"/>
    <path class="st51" d="M950.2 163c0-.6-.5-1.1-1-1.2l-23.7-4.5c-.5-.1-.6.1-.2.4l24.8 18.9c.4.3.8.2.8-.4l-.7-13.2z"/>
    <path class="st36" d="M920.7 180.5c-.3-.5-.1-.6.4-.3l15.3 10c.5.3.5.9.1 1.3l-5.9 5.8c-.4.4-.9.3-1.2-.2l-8.7-16.6z"/>
    <path class="st36" d="M936.1 191.8L923 181.5c-.4-.3-.5-.3-.1.1l10.9 11.1c.4.4.4 1 0 1.4l-.8.8c-.4.4-1 .4-1.4-.1l-9.4-11.6"/>
    <path class="st37" d="M918.3 180.1L888.7 166c-.5-.2-.5-.2 0 .1l26.1 15.4c.5.3.5.8.1 1.2l-.6.6c-.4.4-1.1.5-1.6.1l-28.1-19c-.5-.3-.5-.3 0 .1l25.9 20.8c.4.3.4.9 0 1.3l-1.3 1.1c-.4.4-1.1.3-1.5-.1l-22.3-21.3c-.4-.4-1-.9-1.2-1-.3-.2-.5-.3-.5-.3"/>
    <path class="st38" d="M906.7 190.8c-.4.4-.3.8.2.9l22.1 6c.5.1.8-.1.5-.6l-8.7-16.5c-.3-.5-.8-.6-1.3-.3l-12.8 10.5z"/>
    <path class="st38" d="M928.4 195.1l-9.9-12.7c-.3-.4-1-.5-1.4-.2l-1 .8c-.4.4-.5 1-.1 1.4l12.4 12.6c.4.4.3.5-.1.1l-14.8-10.7c-.4-.3-1.2-.3-1.6 0l-1.6 1.3c-.4.4-.4.9.1 1.1l13.5 7.4"/>
    <path class="st42" d="M798.8 232.3c.5-.3.9-.1 1 .5l3.5 39c.1.6-.3.8-.8.6l-41.7-16.6c-.5-.2-.5-.6-.1-.9l38.1-22.6z"/>
    <path class="st42" d="M802.9 270.8l-5.2-36.6c-.1-.5-.5-.8-1-.5l-3.3 1.9c-.5.3-.8.9-.6 1.5l9.6 34.1c.2.5.1.6-.1.1l-14.2-31.4c-.2-.5-.8-.7-1.3-.4l-3.7 2.3c-.5.3-.6.9-.3 1.4l18.8 28.3c.3.5.2.5-.1.1l-23.9-25.3c-.4-.4-1.1-.5-1.6-.2l-3.8 2.3c-.5.3-.5.8-.1 1.1l27.2 20.9c.4.3.4.4-.1.1l-32.1-18c-.5-.3-1-.6-1.2-.7s-.7.1-1.2.4l-1.6 1.1c-.5.3-.4.8.1 1l32.9 15"/>
    <path class="st58" d="M767.4 206.6l-6.7 46.6c-.1.5.2.7.7.4l2.4-1.6c.5-.3.9-1 .9-1.6l2.8-44.2c0-.6.1-.6.1 0l.5 42c0 .6.4.8.9.5l3.2-1.8c.5-.3.8-.9.8-1.5l-4.6-37.8c-.1-.6 0-.6.1 0l7.7 35.9c.1.5.6.8 1.1.5l3.4-2.1c.5-.3.7-.9.5-1.5l-12.7-33.3c-.2-.5-.1-.5.1-.1l16.5 31c.3.5.9.6 1.3.3l3.9-2.5c.5-.3.6-.9.2-1.3L770 208.4c-.3-.4-.3-.5.1-.1l23.4 24.6c.4.4 1.1.5 1.6.2l3-1.7c.5-.3.5-.8.1-1.1L768.9 207"/>
    <path class="st58" d="M768.4 205.9c-.4-.3-.9-.2-1 .4l-8.3 48c-.1.5.2.8.7.5l39.8-24.2c.5-.3.5-.8.1-1.1l-31.3-23.6z"/>
    <path class="st59" d="M758.8 256.2l33.9 42.2c.3.4.4 1.2.2 1.7l-1.1 2.4c-.2.5-.7.5-1 .1l-30.6-43.8c-.3-.5-.3-.4-.1 0l28.8 48.5c.3.5.3 1.3.1 1.8l-1.4 2.9c-.2.5-.6.5-.9 0L761 261.8c-.3-.5-.3-.5-.1 0l23.8 56.8"/>
    <path class="st60" d="M760.7 256.6c.6.1 42.1 18.6 42.1 18.6.5.2.7.8.5 1.3l-.7 1.4c-.2.5-.8.7-1.3.4l-40.2-21.2c-.5-.3-.5-.2 0 .1l38.5 24.7c.5.3.7 1 .5 1.5l-.9 2.1c-.2.5-.7.7-1.2.3l-35.4-26.2c-.4-.3-.5-.3-.1.1l33.8 30c.4.4.6 1.1.3 1.6l-1.4 3c-.2.5-.7.6-1.1.2L761 258.1"/>
    <path class="st39" d="M699.4 267.5l56.4-11.3c.5-.1.6-.1 0 .1l-54.3 15.6c-.5.2-.9.7-.7 1.3l.3 1.3c.1.5.7.8 1.2.6l51-17.6c.5-.2.5-.2 0 .1l-49.9 21.1c-.5.2-.8.8-.6 1.4l.8 2.3c.2.5.7.8 1.2.5l49.2-25.2c.5-.3.5-.2 0 .1l-49 29.1"/>
    <path class="st37" d="M757.4 257.9l-18 52.2c-.2.5.1 1.1.6 1.2l3.2.9c.5.1 1.1-.2 1.2-.7l13.6-54.2c.1-.5.2-.5.1 0l-8.7 55.6c-.1.5.3 1.1.8 1.3l3.3.9c.5.1 1-.2 1-.7l4.2-57.2c0-.6.1-.6 0 0l-1.4 57.8c0 .6.4 1.1.9 1.3l4.4 1.2c.5.1.9-.2.9-.7l-4-57c0-.6 0-.6.1 0l9.1 58.3c.1.5.6 1.1 1.1 1.2l4.6 1.1c.5.1.9-.2.7-.7l-14.8-57.9c-.1-.5-.1-.5.1 0l20.6 60.4"/>
    <path class="st59" d="M708.4 290l47.1-32.3c.5-.3.5-.3 0 .1l-43.4 34c-.4.3-.4.9 0 1.2l2.5 1.9c.4.3 1.1.3 1.5-.1l40.7-38.2c.4-.4.4-.4.1.1l-37.1 40.9c-.4.4-.3 1 .1 1.3l2.5 1.8c.4.3 1.1.2 1.4-.2l33.2-43.2c.3-.4.4-.4.1.1l-29.3 46.2c-.3.5-.2 1.1.3 1.5l2.3 1.8c.4.3 1 .2 1.3-.3l23.9-44.5c.3-.5.3-.5.1 0l-21.2 47.6"/>
    <path class="st45" d="M800.1 229.4l-.7-33.7c0-.6-.5-.9-1-.7l-1.3.4c-.5.2-.9.7-.9 1.3l3.3 31.1c.1.6 0 .6-.1 0l-5.9-30.2c-.1-.5-.6-.8-1.1-.7l-2.3.8c-.5.2-.8.8-.6 1.3l9.5 28.7c.2.5.1.5-.1 0l-13.2-27.4c-.2-.5-.9-.8-1.4-.6l-1.7.5c-.5.2-.7.7-.4 1.2l16.6 26.3c.3.5.3.5-.1.1l-19.4-25.3c-.3-.4-1-.7-1.6-.5l-2.1.6c-.5.2-.7.6-.3 1l23.3 24.3c.4.4.4.4-.1.1l-27.6-24"/>
    <path class="st58" d="M699.8 262.5l56.5-6.9c.6-.1.5-.1 0-.1l-53.6 3.8c-.6 0-.8-.3-.5-.8l1.7-2.6c.3-.5 1-.9 1.5-.9h51.4c.6 0 .6 0 0-.1l-49-4c-.6 0-.8-.5-.5-.9l2.2-3.8c.3-.5 1-.8 1.5-.7l44.4 8.5c.5.1.6.1 0-.1l-41.8-12.6c-.5-.2-.7-.7-.4-1.2l2.2-3.6c.3-.5.9-.7 1.4-.5l37.2 16.3"/>
    <path class="st45" d="M724 227.7l33.6 26.5c.4.3.5.3.1-.1l-27.4-28.7c-.4-.4-.3-.9.2-1.2l5.3-2.5c.5-.2 1.2-.1 1.5.4l20.6 31.9c.3.5.4.4.1-.1l-15.4-34.6c-.2-.5 0-1.1.5-1.4l5.3-2.7c.5-.3 1 0 1.1.5l8.8 37.6c.1.5.2.5.1 0l-3.9-40.2c-.1-.6.3-1.2.8-1.4l4.5-2.2c.5-.2.9 0 .9.6l-2.2 43.3c0 .6 0 .6.1 0l6-46.4M800.6 194.1c.5-.2.9.1.9.7l-.9 34.3c0 .6-.4.7-.8.4l-31.3-23.6c-.4-.3-.4-.8.1-.9l32-10.9z"/>
    <path class="st45" d="M766.7 205.8c.5-.3.8 0 .7.5l-8.9 48.1c-.1.5-.6.7-1 .4l-36.7-24.7c-.5-.3-.4-.8.1-1l45.8-23.3z"/>
    <path class="st58" d="M757.5 254.9c.5.3.4.6-.2.7l-58 9c-.5.1-.8-.2-.5-.7l20.5-33.4c.3-.5.9-.6 1.4-.3l36.8 24.7z"/>
    <path class="st60" d="M759 256.2c-.4-.4-.2-.6.3-.4l44.1 17.7c.5.2.8.8.5 1.3l-9.2 21c-.2.5-.7.6-1.1.2L759 256.2z"/>
    <path class="st39" d="M757.3 255.6c.5-.1.6.1.1.4L706 287.2c-.5.3-1 .1-1.1-.4l-6.2-21c-.2-.5.2-1 .7-1.1l57.9-9.1z"/>
    <path class="st59" d="M757.5 256c.5-.3.7-.1.5.4l-22 53.2c-.2.5-.7.7-1.2.3L706 288.3c-.4-.3-.4-.8.1-1.1l48.9-29.7c.5-.3 1.2-.8 1.7-1l.8-.5z"/>
    <path class="st37" d="M757.9 256.4c.2-.5.5-.5.7 0l24.1 65.3c.2.5-.1.8-.6.7l-45.6-11.7c-.5-.1-.8-.7-.6-1.2l22-53.1z"/>
    <path class="st59" d="M759 256.2c-.4-.4-.5-.3-.3.2l24.1 65.3c.2.5.5.5.8 0l10.4-24c.2-.5.1-1.3-.3-1.7L759 256.2z"/>
    <path class="st35" d="M902 232.1l-3.3-27.3c-.1-.6-.1-.5-.1 0l1.1 26.5c0 .6-.4 1.1-.9 1.2h-.2c-.5.1-1-.3-1-.8l.9-26.9c0-.6 0-.6-.1 0l-2.8 27.3c-.1.6-.6 1-1.1 1.1h-.4c-.6 0-.9-.4-.8-.9l5.3-28.5"/>
    <path class="st61" d="M885.4 206.3l4 20.8c.1.5.1.6-.1 0l-6.3-20.4"/>
    <path class="st62" d="M896.4 203.3l-5.4 28c-.1.5-.1.5-.1 0l2.7-26.3c.1-.6-.3-.9-.9-.8l-1.2.3c-.5.1-1 .7-1 1.2l.2 26.6"/>
    <path class="st39" d="M894.4 180.5l10.1 9.8c.4.4.4.4-.1.1l-9.9-7.1c-.5-.3-1-.2-1.2.4l-.1.3c-.2.5.1 1.1.6 1.4l11.4 5.6"/>
    <path class="st36" d="M905.2 191.4l-11-.9c-.6 0-.8.3-.6.8l.3.6c.2.5.9.8 1.4.8l8.7-1.2c.5-.1.6.1.1.3l-7.5 3.6c-.5.2-.7.8-.5 1.3l.7 1.5c.2.5.8.6 1.2.2l7.2-7"/>
    <path class="st37" d="M891.5 187.8l3.8 12.2c.2.5-.1.8-.6.5l-1.7-.9c-.5-.3-.9-.9-1-1.5l-.6-9.4c0-.6-.2-.6-.3 0l-1.9 7.8c-.1.5-.6.8-1.1.5l-1.6-.9c-.5-.3-.6-.9-.3-1.3l4.6-6.2c.3-.4.2-.6-.2-.2l-7.4 5c-.5.3-1.2.3-1.7.1l-2.2-1.2c-.5-.3-.5-.6.1-.8l12.1-3.7M887 205.3s-10.8-14.1-10.7-14 8.1 13.4 8.1 13.4c.3.5.1.9-.5.9h-.3c-.6 0-1.2-.3-1.4-.8l-5.9-13.5"/>
    <path class="st46" d="M878.9 203.5l-4.6-11.4c-.2-.5-.8-.8-1.3-.7-.5.1-.7.6-.4 1.1l5.9 10.1c.3.5.2.5-.1.1l-8.3-10.6"/>
    <path class="st24" d="M894.3 233.5s-.6 16.6-.8 17.1-1-17.2-1-17.2"/>
    <path class="st62" d="M890.6 234.8l1.2 17.4c0 .6-.4 1.1-.9 1.1h-.1c-.6.1-1-.3-1-.9l.7-16.7c0-.6 0-.6-.1 0l-2.7 18.2"/>
    <path class="st25" d="M890.1 236.8l-37.3 7.4c-.5.1-.5.1 0 .1l35.2-4.4c.6-.1.9.3.8.9l-.5 2.2c-.1.5-.7 1-1.2 1l-34.2.5c-.6 0-.6.1 0 .1l33.4 2.8c.6 0 .9.5.8 1.1l-.7 2.7c-.1.5-.7.9-1.2.8l-33.2-7.3"/>
    <path class="st26" d="M851.8 243.4l28.7-33.5c.4-.4.8-.3 1 .2l.6 1.7c.2.5 0 1.3-.4 1.7l-29.3 29.3c-.4.4-.4.4.1.1l30.6-25.6c.4-.4 1-.2 1.2.3l1.3 2.8c.2.5 0 1.2-.4 1.5L852.7 243c-.5.3-.4.3.1.1l33.9-17.1c.5-.2 1.1 0 1.3.5l1.4 3.6c.2.5-.1 1.1-.6 1.3l-37 12"/>
    <path class="st41" d="M868.7 194.1c-.1.3-16.1 47.3-16.1 47.3-.2.5-.2.5 0 0l17.6-44.3c.2-.5.7-.6 1.1-.2l.9 1c.4.4.5 1.2.3 1.7l-20 42.3c-.2.5-.2.5.1 0l22.4-39.8c.3-.5.8-.6 1.2-.2l1.3 1.3c.4.4.5 1.1.1 1.6L852.3 242c-.3.5-.3.5 0 0l26.6-34.8c.3-.4.6-1 .6-1.2v-.4"/>
    <path class="st45" d="M867.1 191.4l4.8-1.6c.5-.2.5-.4 0-.6l-3.5-.9c-.5-.1-1.1.2-1.1.8l-.2 1.3c-.1.5-.4.6-.8.2l-1.9-2.7c-.3-.5-1-.9-1.6-1l-1.5-.3c-.5-.1-.7.1-.3.5l4.3 4.2"/>
    <path class="st39" d="M905.2 190.6c.4.4.2.6-.3.5l-12.1-3.5c-.5-.2-.8-.7-.6-1.2l2.5-6.9c.2-.5.6-.6 1-.2l9.5 11.3z"/>
    <path class="st36" d="M904.9 191.1c.5.2.7.7.4 1.1l-6 9.6c-.3.5-.7.4-1-.1l-6.2-13.5c-.2-.5 0-.8.5-.6l12.3 3.5z"/>
    <path class="st61" d="M886.9 206.2c.6-.1 1 .3 1.1.9l1.9 21.9c0 .6-.1.6-.3.1l-8.1-21.4c-.2-.5.1-1 .6-1l4.8-.5z"/>
    <path class="st46" d="M879.2 203.7c.2.5 0 .6-.4.2L868.5 193c-.4-.4-.2-.8.3-.9l5.7-1.2c.5-.1 1.1.2 1.3.8l3.4 12z"/>
    <path class="st45" d="M874.9 190.2c.5-.1.5-.3 0-.5l-.6-.1c-.5-.1-1.1-.3-1.2-.3-.1 0-.7-.2-1.2-.3l-14.1-3.5c-.5-.1-.6 0-.1.3l8.4 5.6c.5.3 1.3.5 1.8.3l7-1.5z"/>
    <path class="st37" d="M876.7 191.1c-.3-.4-.5-.3-.4.2l3.5 13.8c.1.5.7.9 1.3.9l6.2-.5c.6 0 .7-.4.4-.9l-11-13.5zM918.8 179.7c.3-.2.1-.6-.4-.8l-35.5-15.3c-.5-.2-.6-.1-.3.4l22.1 26.1c.4.4 1 .5 1.4.1l11.4-9.3c.4-.5 1-1 1.3-1.2zM892.3 188.3c-.2-.5-.9-.8-1.4-.7l-14.4 2.5c-.5.1-.6.4-.1.6l21.7 11.5c.5.3.7.1.5-.4l-6.3-13.5z"/>
    <path class="st35" d="M905.9 192.4c0-.6-.2-.6-.5-.2l-6 9.6c-.3.5-.3 1.2 0 1.7l6 9.7c.3.5.5.4.5-.1v-20.7z"/>
    <path class="st63" d="M898 202.2c.5.3.4.6-.1.7l-8.6 2.1c-.5.1-1.3-.1-1.6-.5l-11.5-13.6c-.4-.4-.2-.6.2-.3l21.6 11.6z"/>
    <path class="st41" d="M867.5 192.7c-.4-.4-.8-.3-1 .2l-14.8 50.5c-.2.5 0 .6.3.2l27.5-36.8c.3-.4.3-1.1-.1-1.5l-11.9-12.6z"/>
    <path class="st26" d="M879.6 206.8c.3-.4.8-.4 1 .1l9.8 25.8c.2.5-.1 1.1-.6 1.2l-37.3 10.2c-.5.1-.7-.1-.4-.5l27.5-36.8z"/>
    <path class="st24" d="M891.7 233.5c-.5.1-.9.6-.8 1.1l2.6 17.2c.1.5.2.5.3 0l2.2-17.9c.1-.6-.3-.9-.9-.9l-3.4.5z"/>
    <path class="st25" d="M889.7 233.9c.5-.1.9.2.7.7l-4.8 19c-.1.5-.7.8-1.2.7l-32.1-9.6c-.5-.2-.5-.4 0-.6l37.4-10.2z"/>
    <path class="st62" d="M890.9 234.7c-.1-.5-.3-.6-.4 0l-4.8 19c-.1.5.2.9.7.8l6.2-1.3c.5-.1.9-.7.8-1.2l-2.5-17.3z"/>
    <path class="st63" d="M875.9 190.4l19.7 12.3c.5.3.4.6-.1.8l-.5.1c-.5.1-1.3 0-1.8-.4l-16.2-12c-.4-.3-.5-.3-.1.1l14 13.4"/>
    <path class="st62" d="M897.9 203c.5-.1.9.2.7.7l-7.7 29c-.1.5-.3.5-.3 0l-2.2-26.3c0-.6.4-1.1.9-1.2l8.6-2.2z"/>
    <path class="st35" d="M899.1 203.7c-.1-.5-.3-.6-.4 0l-7.7 29c-.1.5.2.9.7.8l11.4-1.5c.5-.1.9-.6.8-1.1l-4.8-27.2z"/>
    <path class="st64" d="M705.1 288.2l-18.4-5c-.5-.1-.7.1-.4.6l1.8 2.5c.3.5 1 .9 1.6.9l14.4 1c.6 0 .6.2 0 .3l-11.7 2.3c-.5.1-.7.6-.4 1l1.9 2.6c.3.5 1 .6 1.4.3l9-5.8c.5-.3.6-.2.3.3l-6.4 9.3c-.3.5-.3 1.2 0 1.7l2 2.9c.3.5.7.4.8-.1l3.9-13.6c.2-.5.3-.5.3 0l.6 21.3"/>
    <path class="st52" d="M705.2 288.8l25.6 21.5c.4.4.3.7-.2.8l-2.3.3c-.5.1-1.3-.2-1.7-.6L706 289.5c-.4-.4-.4-.4-.1.1l16.7 21.7c.3.4.2.9-.4.9l-3.3.4c-.5.1-1.2-.3-1.5-.8l-11.8-22.2c-.3-.5-.3-.5-.2.1l7.4 23.6"/>
    <path class="st37" d="M790.2 332.9l-2.4-8.6c-.1-.5-.7-1-1.3-1.1-.6-.1-.8.3-.6.8l3 6.6"/>
    <path class="st37" d="M783.7 323.5c-.3-.5-.1-.8.4-.7l4.5.8c.5.1 1 .6 1.1 1.2l.6 7.6c0 .6-.2.6-.5.2l-6.1-9.1zM788.4 334.4l-45.7 14c-.5.2-.7.7-.4 1.1l1.5 2c.3.4 1 .6 1.5.4l42-17.2c.5-.2.5-.2 0 .1l-39.2 20.4c-.5.3-.6.8-.3 1.3l1.7 2.3c.3.4 1 .6 1.4.3l37.5-24.7M733.5 334.5l47.5-11.2c.5-.1.5-.1 0 .1L735.8 337c-.5.2-.8.7-.5 1.2l.7 1.4c.3.5.9.7 1.4.5l43.6-16.7c.5-.2.5-.2 0 .1l-43.3 19.6"/>
    <path class="st39" d="M785.8 327.1L742 344.6c.2 0 41.8-19.6 41.8-19.6"/>
    <path class="st39" d="M789.1 331.6L743 344.3c-.5.1-.5.1 0-.1l44.4-14.9"/>
    <path class="st37" d="M732.8 310.8l-.7 18.2c0 .6-.1.6-.1 0l-1.8-16.7c-.1-.6-.6-.9-1.1-.8l-1 .2c-.5.1-.9.6-.7 1.2l4.7 17.5"/>
    <path class="st39" d="M735.1 313.7l46.1 8.6c.5.1.5.1 0 .1l-45.6-5.3c-.6-.1-1.1.3-1.2.9l-.4 2.5c-.1.5.3 1 .8 1l46.7 1.1c.6 0 .6 0 0 .1l-47.2 2.5c-.6 0-1.1.5-1.2 1l-.4 2.3c-.1.5.3.9.8.8l48.8-6.9"/>
    <path class="st37" d="M789.4 333.7c.5-.1.6 0 .2.4l-36.2 28.6c-.4.3-1.1.3-1.4-.2l-11.5-15.6c-.3-.4-.2-.9.4-1.1l48.5-12.1z"/>
    <path class="st52" d="M734.7 309.9c.4.3.4.7-.2.7l-25.3 3.2c-.5.1-1.1-.3-1.1-.9l-2.8-24.3c-.1-.6.2-.7.7-.4l28.7 21.7z"/>
    <path class="st64" d="M705.3 288.7c-.1-.5-.5-1.2-1.1-1.3l-20.3-7.6c-.5-.2-.7 0-.3.5l24.1 33c.3.4.5.4.5-.2l-2.9-24.4z"/>
    <path class="st65" d="M683.6 280.2c-.3-.4-.9-.5-1.3-.1l-4.7 5c-.4.4-.3 1 .1 1.4l29.8 26.8c.4.4.5.3.2-.1l-24.1-33z"/>
    <path class="st39" d="M735.4 311.5c.1-.5.6-.9 1.1-.7l45.6 11.7c.5.1.5.3 0 .4l-49.1 8.6c-.5.1-.9-.3-.8-.8l3.2-19.2zM782 323.7c.5-.3 1.2-.1 1.5.3l6 8.1c.3.4.2.9-.4 1.1l-48.7 12.4c-.5.1-.6 0-.1-.2l41.7-21.7z"/>
    <path class="st37" d="M734.5 310.6c.5-.1.9.3.8.9l-3.2 19.1c-.1.5-.3.6-.5.1l-6.9-17.8c-.2-.5.1-1 .6-1.1l9.2-1.2zM782.1 322.8c.5-.1.6 0 .1.3l-42.6 21.7c-.5.3-1.1.1-1.3-.4l-5.8-11.8c-.2-.5 0-1 .6-1.1l49-8.7z"/>
    <path class="st39" d="M790.3 333.9c.4-.3.9-.2 1.1.3l3.2 10.9c.2.5-.1 1.1-.6 1.4l-40.5 16.9c-.5.2-.6.1-.1-.2l36.9-29.3z"/>
    <path class="st39" d="M753.9 362.7l37.1-26.2c.5-.3 1-.1 1.1.4l.3.8c.2.5-.1 1.2-.6 1.5l-37.1 22.9c-.5.3-.5.3 0 .1l37.7-20.4c.5-.3 1 0 1.2.5l.2.6c.2.5-.1 1.2-.6 1.4l-39.3 18.4"/>
    <path class="st65" d="M681 281.5l25 30c.4.4.3.4-.1 0l-26.8-28"/>
    <path class="st39" d="M789.9 399.6l9.2 4.1c.5.2 1.1 0 1.4-.5l5-9.5M800.1 403.2l1.7-9"/>
    <path class="st66" d="M807 381.2l-13.4-31.4c-.2-.5-.7-.6-1-.1l-.3.4c-.3.5-.4 1.2-.1 1.7l14.3 28.4c.2.5.2.5-.1 0l-16-25.7c-.3-.5-.8-.5-1.1 0l-.2.4c-.3.5-.3 1.2 0 1.7l17.2 23.7c.3.4.3.5-.1.1l-19-21.2c-.4-.4-.9-.4-1.2.1l-.2.4c-.3.5-.2 1.2.2 1.5l20.2 18.9c.4.4.4.4-.1.1l-21.8-16.5c-.4-.3-1.1-.2-1.4.2l-.4.6c-.3.5-.2 1.1.3 1.4l23.2 14.4c.5.3.5.3 0 .1L781.4 368c-.5-.2-1.1-.1-1.4.4l-.3.5c-.3.5-.1 1 .4 1.2l25 9.9c.5.2 1.2.5 1.4.6.3.1.1.1-.5-.1l-27.3-8.3c-.5-.2-1.2.1-1.5.6l-.3.5c-.3.5-.1 1 .5 1.1l29.6 6.8"/>
    <path class="st39" d="M753.1 364.5l19.1 13.1c.5.3.5.9.1 1.2l-.4.3c-.4.4-1.1.4-1.5 0l-16.5-14c-.4-.4-.5-.3-.1.1l14.4 16.2c.4.4.4 1.1 0 1.5l-.8 1c-.4.4-.9.4-1.2-.1l-13.1-19.3"/>
    <path class="st37" d="M791.6 348.6l-34 16.3c-.5.2-.5.7 0 1l.7.4c.5.3 1.3.3 1.7 0l30.7-17.1c.5-.3.5-.2 0 .1l-28.1 18.6c-.5.3-.5.8 0 1.1l1.5 1c.5.3 1.2.3 1.6-.1l25-20.7c.4-.4.5-.3.1.1l-22.7 22.1c-.4.4-.3.9.2 1.2l1.6.9c.5.3 1.2.1 1.5-.3l20.2-24.6"/>
    <path class="st23" d="M824.7 334l-27.4 15.6c-.5.3-.7.9-.6 1.5l.8 2.3c.2.5.7.7 1.1.3l25.3-19.1c.4-.3.5-.3.1.1l-23.9 23.5c-.4.4-.6 1.1-.4 1.7l1.4 3.6c.2.5.6.6 1 .1l22-28.8c.3-.4.4-.4.1.1l-20.4 33.8c-.3.5-.4 1.3-.2 1.8l1.2 3.4c.2.5.5.5.8 0l19.1-39.9"/>
    <path class="st37" d="M755.1 363.6c-.5.2-.5.6-.1.9l18.1 10.8c.5.3 1.1.1 1.4-.3l17.9-26.3c.3-.5.1-.7-.4-.4l-36.9 15.3z"/>
    <path class="st39" d="M753.3 364.4c-.5-.3-.6-.1-.4.4l11.6 20.8c.3.5.8.6 1.2.2l7.8-8.1c.4-.4.3-1-.2-1.2l-20-12.1z"/>
    <path class="st23" d="M824.4 333.7c.5-.2.8 0 .6.5l-17.2 46.4c-.2.5-.5.5-.7 0L795 347.8c-.2-.5.1-1.1.6-1.4l28.8-12.7z"/>
    <path class="st66" d="M774.6 376.8l-16.5 19.9c-.4.4-.2 1 .2 1.3l.8.4c.5.3 1.1.1 1.4-.4l13.5-20.4c.3-.5.3-.4.1 0L762.6 399c-.3.5-.1 1.1.4 1.3l1.1.6c.5.3 1.1 0 1.3-.5 0 .1 9.1-24.2 9.2-23.6.1.5-7 24.6-7 24.6-.2.5.1 1.2.6 1.4l1.3.7c.5.3 1 0 1.1-.5l3.9-25.2c.1-.5.1-.5.1 0l-1.6 26.6c0 .6.4 1.2.9 1.4l1.3.6c.5.2.9 0 .9-.6l-1.5-29M795 347.8c-.2-.5-.6-.6-.9-.1l-18.6 27.6c-.3.5-.1.9.4 1l30.5 5.1c.5.1.8-.3.6-.8l-12-32.8z"/>
    <path class="st66" d="M774.3 376.8c.4-.4.7-.3.8.3l3.2 29.9c.1.6-.3.8-.8.6l-21-10.5c-.5-.2-.6-.8-.2-1.2l18-19.1z"/>
    <path class="st23" d="M806.3 381.8c-.2 0-29.8-1.8-29.8-1.8-.6 0-.9.4-.9.9l.2 1.4c.1.5.6 1 1.2.9l28.3-1.5c.6 0 .6 0 0 .1l-28 4.3c-.5.1-.9.6-.9 1.2l.1 1.3c.1.6.5.9 1.1.7l27.7-7.4c.5-.1.6-.1 0 .1L778 392.4c-.5.2-.9.8-.9 1.4l.1 1.9c0 .6.5.8.9.5l27.2-14.1c.5-.3.5-.2 0 .1l-27 17.3c-.5.3-.8 1-.8 1.5l.2 2.4c.1.6.5.7.9.4l27.7-22"/>
    <path class="st23" d="M775.9 376.3c-.5-.1-.9.3-.9.8l3.2 29.9c.1.6.4.7.9.3l27.6-25.1c.4-.4.3-.8-.2-.8l-30.6-5.1z"/>
    <path class="st37" d="M811.8 561.6l-8-4.3M811.8 561.6l-18.7 3.5M811.5 561.6l-14 .4M811.8 561.6l-10.7-2.2"/>
    <path class="st39" d="M789.3 567.4l1.7-14.7M795.1 551.2l-6.2 16.3M799 553l-9.9 14M802.8 554.6l-13.7 12.6"/>
    <path class="st58" d="M788.1 567.9c-.1-.3-2.6-12.1-2.6-12.1M788.1 567.9c0-.3-5.4-11.1-5.4-11.1M788.1 567.9c-.4-.3-8.5-10.5-8.5-10.5M788.1 567.9l-12.9-9.9M788.1 567.9l-17-9.3"/>
    <path class="st39" d="M744.4 530.3l-1.8 3.1M751.2 542.8l-2.9-6.7"/>
    <path class="st58" d="M763.1 548l2.7-2.8"/>
    <path class="st39" d="M782.6 541.1l2.1 2.5"/>
    <path class="st58" d="M788.6 554.2l.1 13.2c0 .6-.3.9-.7.7s-1.1-.5-1.6-.7l-4.7-1.9c-.5-.2-1.4-.5-1.9-.7l-15.6-6.1"/>
    <path class="st39" d="M793.8 550.6l11 4.8c.5.2.6.7.1 1L789.4 568c-.4.3-.8.1-.8-.4v-13.2"/>
    <path class="st37" d="M804.9 556.3c.4-.3 1.1-.3 1.6.1l5.2 4.7c.4.4.3.8-.2 1l-21.8 6.1c-.5.1-.6 0-.2-.3l15.4-11.6z"/>
    <path class="st58" d="M811.9 563c.5-.1.7.1.4.6l-2.6 3.9c-.3.5-1 .9-1.6.9l-18 1c-.6 0-.6-.1 0-.2l21.8-6.2z"/>
    <path class="st39" d="M747 538.6c.2-.1-3.1-7.2-3.1-7.2"/>
    <path class="st58" d="M761.2 547.5l1.9-2.6M760.8 544.4l-1 2.6M757.9 546.2l.3-2.8M755.3 542l.5 3.2M752.1 540l1.5 3.8"/>
    <path class="st39" d="M783 542.1l-15.9 5.6M772.2 547.8l11.9-4.4"/>
    <path class="st58" d="M809.7 563.6s-1 4.4-1.1 4.5M808.8 568.1l-2.7-3.3M808.6 568.2l-6.3-2.4M796.4 567.4l12.2.8"/>
    <path class="st39" d="M798.6 394.4l1.5 8.8M794.9 395.1l5.2 8.1M792.1 397.6l8 5.9"/>
    <path class="st44" d="M750.8 455.6v8.3c0 .6.4.8.9.6l4.8-2.1"/>
    <path class="st45" d="M779.6 409.5l19-3.3c.5-.1.9.3.7.8l-12.5 42"/>
    <path class="st58" d="M728.6 427.6l18.5-8.1c.5-.2.5-.2.1.1l-15.1 9.1c-.5.3-.5.8-.1 1.2l1 .8c.4.4 1.1.3 1.5 0l12.7-11c.4-.4.5-.3.1.1l-10.2 12.8c-.3.4-.3 1 .2 1.4l.8.5c.5.3 1.1.2 1.3-.3l8-14.3c.3-.5.3-.5.2.1l-6 16.8"/>
    <path class="st67" d="M739.9 410.4l7.2 7.2c.4.4.3.5-.2.2l-8.5-4.4c-.5-.3-1.2-.1-1.6.3l-2.5 2.7c-.4.4-.2.8.3.8l12.1 1c.6 0 .6.1 0 .2l-15.1 1.8c-.6.1-1.3.5-1.7.9l-1.6 1.9c-.4.4-.2.7.3.5l19.3-4.9"/>
    <path class="st66" d="M754.6 397.4s-.2.4-.3.9-.5 1.4-.7 1.9l-5.6 15.4c-.2.5-.6.6-1 .2l-.2-.3c-.4-.4-.4-1.2-.2-1.7l7.5-15.3c.2-.5.2-.5-.1-.1l-8.7 13.4c-.3.5-.8.5-1.2 0l-.6-.8c-.3-.4-.3-1.1.1-1.5l10.9-12"/>
    <path class="st67" d="M748.7 419.3l23.9-.6c.6 0 .6.2.2.5l-2.9 1.9c-.5.3-1.3.5-1.8.4l-18.3-2.2c-.6-.1-.6 0 0 .2l14.5 4.5c.5.2.6.5.1.8L761 427c-.5.3-1.2.3-1.7 0l-10.1-7.2c-.5-.3-.6-.2-.3.2l6.5 9.5c.3.5.2 1.1-.3 1.4l-2.9 1.8c-.5.3-.9.1-1-.5l-2.3-11.9c-.1-.5-.2-.5-.3 0l-1.2 15.6"/>
    <path class="st46" d="M789.5 400.4l9.7 4.1c.5.2.5.5-.1.6l-18.9 3.3"/>
    <path class="st45" d="M781.6 471.8l-2.1 9.4M776.8 490.8l-.6 2"/>
    <path class="st44" d="M754.6 493.5l1.2 1.7"/>
    <path class="st43" d="M752 482.8l-1.2-16c0-.6.3-1.2.9-1.4l4.4-1.8"/>
    <path class="st66" d="M755.2 397.6c.2-.5 0-.7-.5-.3L742.3 408c-.4.4-.5 1-.2 1.5l5.8 8.1c.3.5.7.4.9-.1l6.4-19.9z"/>
    <path class="st67" d="M777 416.4c.3 0 .2.2-.3.5l-32.4 21c-.5.3-.7.1-.6-.4l4.6-18.1c.1-.5.7-1 1.3-1l25.8-1.8c.5-.1 1.2-.2 1.6-.2zM747.6 418.7c.5-.2.7-.7.4-1.1l-5.8-8.1c-.3-.5-.9-.5-1.3-.1l-14.3 15.5c-.4.4-.3.6.3.4l20.7-6.6z"/>
    <path class="st58" d="M747.6 418.7c.5-.2.8.1.7.7l-4.6 18.1c-.1.5-.6.7-1.1.4l-15.9-11.6c-.4-.3-.4-.7.1-.9l20.8-6.7z"/>
    <path class="st45" d="M777.6 446.8c.5-.2.8.1.7.6l-5.4 18.3c-.2.5-.7.8-1.2.5l-17.4-9.5c-.5-.3-.5-.6.1-.8l23.2-9.1z"/>
    <path class="st68" d="M757.4 397.4l-8 19.1c-.2.5-.2.5.1.1l10-16.9c.3-.5.9-.7 1.4-.4l.3.2c.5.3.6.8.3 1.3l-11.9 15.9c-.3.4-.3.5.1.1l14.6-14.6c.4-.4 1.1-.5 1.6-.3l.4.2c.5.2.6.7.2 1l-16.7 13.8c-.4.4-.4.4.1.1l19.6-12.4c.5-.3 1.2-.3 1.7 0l.7.4c.5.3.5.7 0 1l-22 11.2c-.5.3-.5.3 0 .1l26-10.3"/>
    <path class="st11" d="M744.5 440.4l32.7 5c.5.1.5.1 0 .1l-30.5-2.9c-.6-.1-.8.3-.5.8l.2.4c.3.5.9.9 1.5.9l29.4.8c.6 0 .6 0 0 .1l-28.3 1.1c-.6 0-.8.4-.5.9l.4.7c.3.5.9.8 1.5.8l27-3.4c.6-.1.6 0 0 .1l-25.7 5.8c-.5.1-.8.6-.5 1.1l.3.5c.3.5.9.7 1.5.6l25.3-8.3"/>
    <path class="st68" d="M755.2 397.6c.2-.5.7-.8 1.2-.5l21 10.5c.5.2.5.6-.1.8l-27.9 9.7c-.5.2-.8-.1-.6-.6l6.4-19.9z"/>
    <path class="st45" d="M778.2 446.7l-6.8 18.1c-.2.5-.7.7-1.2.5-.5-.3-.7-.9-.4-1.4l8-16.3c.2-.5.2-.5-.1-.1l-9.6 15.4c-.3.5-.9.6-1.4.4l-.1-.1c-.5-.3-.6-.8-.3-1.3l11.4-14.5c.3-.4.3-.5-.1-.1l-13 13.7c-.4.4-1.1.5-1.6.2l-.3-.2c-.5-.3-.5-.8-.1-1.2l14.9-12.7c.4-.4.4-.4-.1-.1l-16.9 11.6c-.5.3-1.2.3-1.7.1l-.2-.1c-.5-.3-.5-.7 0-1l18.8-10.6c.5-.3.5-.3 0-.1l-22 10"/>
    <path class="st58" d="M774.6 418.3l4 25.6c.1.5 0 .6-.1 0l-6.7-22.6c-.2-.5-.7-.7-1.1-.4l-1.4.9c-.5.3-.7 1-.4 1.5l9.5 20.7c.2.5.2.5-.1.1l-12.6-18.8c-.3-.5-.9-.6-1.4-.3l-.9.6c-.5.3-.5.9-.2 1.3l14.9 17.2c.4.4.3.5-.1.1l-17.6-15.6c-.4-.4-1.1-.4-1.6-.1l-1 .6c-.5.3-.5.8 0 1.1l20.2 14.1c.5.3.4.4-.1.1l-22.5-12.5c-.5-.3-1.3-.3-1.7 0l-.9.5c-.5.3-.4.7.1.9l25 11.1c.5.2.5.3 0 .1l-28-9.3c-.5-.2-1.3-.1-1.8.2l-1.4.9c-.5.3-.4.6.1.8l32 7.8"/>
    <path class="st58" d="M776.7 416.9c.5-.3.9-.1.9.5l1.7 27.1c0 .6-.4.9-.9.8l-34-6.6c-.5-.1-.6-.4-.1-.7l32.4-21.1z"/>
    <path class="st43" d="M778.1 410l-25.7 7.3c-.5.2-.5.2 0 .1l24.5-5c.5-.1.9.2.9.8v.4c-.1.5-.6 1.1-1.1 1.1l-24.8 2.9"/>
    <path class="st43" d="M777.4 408.4c.5-.2.9.1.8.7l-.7 6.3c-.1.6-.6 1-1.1 1.1l-27 1.9c-.6 0-.6-.1-.1-.3l28.1-9.7z"/>
    <path class="st11" d="M778.4 445.2c.5.1.6.4 0 .5l-25 9.5c-.5.2-1.2 0-1.4-.5l-8.1-15.4c-.3-.5 0-.8.5-.7l34 6.6z"/>
    <path class="st58" d="M779.9 446.2c.2 0 14.7 14.1 14.7 14.1.4.4.3.8-.3.9l-.6.1c-.5.1-1.3-.1-1.6-.5l-11.6-13.6c-.4-.4-.4-.4-.1.1l9.2 14.2c.3.5.1 1-.4 1.1l-.3.1c-.5.2-1.2-.1-1.4-.6l-7.4-15c-.2-.5-.3-.5-.1.1l4.9 15.6c.2.5-.1 1.1-.7 1.2l-.7.2c-.5.2-1-.2-1.1-.7l-2.6-16.3c-.1-.5-.1-.5-.1 0l.4 16.9c0 .6-.4 1.1-1 1.2l-.6.1c-.5.1-.9-.2-.9-.8l1.9-17.5c.1-.6 0-.6-.1 0l-4.2 19.2"/>
    <path class="st11" d="M795 460.9l.8 12.1c0 .6 0 .6-.2 0l-2.6-10.3c-.1-.5-.7-.9-1.2-.8l-.7.2c-.5.1-.8.6-.5 1.1l4.9 9.8c.2.5.2.5-.2.1l-7.1-9.2c-.3-.4-1-.7-1.6-.5l-.6.2c-.5.2-.6.6-.2 1l9.3 8.7c.4.4.4.4-.1.1l-11.8-8.4c-.5-.3-1.3-.5-1.8-.3l-.5.1c-.5.1-.6.5-.1.8l14.1 7.9c.5.3.5.3 0 .1l-16.6-7.5c-.5-.2-.5-.2 0 0l16.6 7.5c.5.2.5.3 0 .1l-19.8-7.2"/>
    <path class="st11" d="M796.3 460.7c.5-.1.9.2.9.7l-1 11.7c0 .6-.5.9-1 .7l-21.4-6.7c-.5-.2-.5-.4 0-.6l22.5-5.8z"/>
    <path class="st58" d="M779.1 446.4c.2-.5.6-.7 1.1-.3l16.4 13.8c.4.4.3.8-.2.9l-22.5 5.9c-.5.1-.8-.2-.7-.7l5.9-19.6z"/>
    <path class="st46" d="M798.6 404.5l-10.8-2.3M784.1 405.3l14.5-.8"/>
    <path class="st45" d="M798.9 406.8l-14.8 40.1M775.8 470l-1.2 3.1M778.5 470.7l-3.1 8.5M781.8 444.5l17-38M781 432.5l17.7-26.2M780.4 428.1l18.4-21.6M780 423l18.8-16.5M779.7 418.5l19.1-12M779.7 414.7l19.1-8.2M798.5 406.7L780.9 439M780 411.3l18.9-4.5"/>
    <path class="st44" d="M756.7 459.8l-5.7 4.4M754.2 458.3l-3.2 5.9M752.3 456.9l-1 7.3"/>
    <path class="st43" d="M756.4 465.4l-5.2.7M755.5 467.9l-4.3-1.8M755.6 470.5l-4.3-4.4M755.2 474.7l-4-8.6"/>
  </g>
    <g>
      <path class="st43" d="M754.8 481.1l-3.6-15"/>
    </g>


<!--  wind  -->
  <g id="Layer_4">
    <path class="st70" d="M531.2 424.5l1-33.6-3.5 1.1 2.5 32.5-5.7-31.6-3.4 1.3 9.1 30.3-12.3-29.2-3.6 1.2 15.9 28-18.5-27-4.1 1.4 22.6 25.6-25.5-24.6"/>
    <path class="st71" d="M523.3 367.7l29.2-12.3-1.7-2.6-27.5 14.9 25.8-17.4-2.1-2.7-23.7 20.1 22.2-22.5-2-2.8-20.2 25.3 18.2-28.5-2.2-3-16 31.5 14.2-33.9"/>
    <path class="st70" d="M441.1 370.8l-17 29 3.7.7 13.3-29.7-10.2 30.4 3.7.6 6.5-31-3.2 31.5 3.7.7-.5-32.2 3.3 32.5 4.3.8-7.6-33.3 10.6 33.8M431.8 319.2l-29.3-16.7-.6 3.7 29.9 13-30.6-9.8-.4 3.6 31 6.2-31.6-2.8-.6 3.7 32.2-.9-32.5 3.7-.7 4.3 33.2-8-33.7 11M321.1 322.8l-17 29 3.7.7 13.3-29.7-10.2 30.4 3.7.6 6.5-31-3.2 31.5 3.7.7-.5-32.2 3.3 32.5 4.3.8-7.6-33.3 10.6 33.8"/>
    <path class="st71" d="M388.8 426.4l-31.6-3.2.3 3 31.3.2-31 2.9.5 3.4 30.5-6.3-30.3 9.1.4 3.4 29.9-12.5-29.6 16.3.5 3.7 29.1-20-28.7 22.9"/>
    <path class="st70" d="M264 296.5l-29.3-16.6-.6 3.7 29.9 12.9-30.6-9.7-.4 3.6 31 6.1-31.6-2.7-.6 3.6 32.2-.9-32.5 3.8-.7 4.2 33.2-8-33.7 11"/>
  </g>
</svg>
